if (_typeface_js && _typeface_js.loadFace) _typeface_js.loadFace({"glyphs":{"S":{"x_min":88.28125,"x_max":967.9375,"ha":874,"o":"m 523 480 b 759 300 706 465 800 498 b 439 95 717 95 657 95 b 229 325 223 95 179 95 l 114 325 b 417 -8 29 23 157 -8 b 873 295 675 -8 812 1 b 568 584 931 577 808 570 b 325 772 379 590 284 573 b 619 945 355 916 393 945 b 835 756 835 945 867 938 l 950 756 b 645 1050 1021 1040 865 1050 b 203 747 393 1050 262 1025 b 523 480 146 472 325 497 "},"¦":{"x_min":383.828125,"x_max":469.578125,"ha":650,"o":"m 383 1088 l 383 525 l 469 525 l 469 1088 l 383 1088 m 383 281 l 383 -280 l 469 -280 l 469 281 l 383 281 "},"/":{"x_min":5,"x_max":1167,"ha":1010,"o":"m 1167 1041 l 1040 1041 l 5 -156 l 128 -156 l 1167 1041 "},"y":{"x_min":39,"x_max":752,"ha":607,"o":"m 752 729 l 640 729 l 343 80 l 341 80 l 256 729 l 146 729 l 252 0 l 290 0 b 93 -236 248 -83 205 -236 b 56 -231 79 -236 67 -234 l 39 -316 b 85 -323 52 -319 67 -323 b 383 -51 256 -323 316 -188 l 752 729 "},"≈":{"x_min":212,"x_max":983.75,"ha":1086,"o":"m 941 642 b 779 524 892 563 847 524 b 620 580 715 524 678 549 b 436 647 572 605 514 647 b 212 501 344 647 263 592 l 256 459 b 425 579 300 522 348 579 b 580 526 481 579 531 552 b 776 456 661 483 707 456 b 983 601 876 456 937 520 l 941 642 m 941 370 b 779 253 891 291 849 253 b 618 310 714 253 673 281 b 435 376 572 334 515 376 b 212 229 344 376 263 320 l 256 188 b 425 308 300 249 346 308 b 580 253 481 308 530 281 b 776 186 661 212 707 186 b 983 328 876 186 937 249 l 941 370 "},"Ž":{"x_min":35,"x_max":1034,"ha":885,"o":"m 1034 1041 l 270 1041 l 248 937 l 870 937 l 56 102 l 35 0 l 831 0 l 852 104 l 196 104 l 1012 931 l 1034 1041 m 663 1126 l 936 1275 l 919 1334 l 685 1229 l 505 1334 l 461 1275 l 663 1126 "},"Á":{"x_min":8,"x_max":924,"ha":951,"o":"m 770 220 l 804 0 l 924 0 l 759 1041 l 595 1041 l 8 0 l 129 0 l 254 220 l 770 220 m 757 318 l 306 318 l 661 944 l 757 318 m 821 1344 l 586 1187 l 610 1130 l 858 1269 l 821 1344 "},"g":{"x_min":60.265625,"x_max":844.296875,"ha":796,"o":"m 393 80 b 257 363 185 80 220 188 b 512 648 297 555 313 648 b 660 363 705 648 702 566 b 393 80 626 201 600 80 m 844 729 l 736 729 l 717 637 l 713 636 b 505 737 690 723 604 737 b 145 363 259 737 195 606 b 350 -8 92 113 118 -8 b 600 90 434 -8 551 1 l 603 90 l 567 -77 b 328 -234 536 -220 456 -234 b 181 -86 215 -234 150 -226 l 73 -86 b 309 -323 18 -297 142 -323 b 674 -86 482 -323 633 -280 l 844 729 "},"²":{"x_min":141.796875,"x_max":721.125,"ha":575,"o":"m 247 502 l 254 534 b 438 637 271 616 307 627 b 710 851 605 650 676 683 b 521 1050 744 1009 698 1050 b 234 862 291 1050 262 1000 l 227 830 l 316 830 l 322 862 b 503 966 339 956 358 966 b 622 851 616 966 645 959 b 437 720 597 729 566 734 b 163 525 275 705 198 691 l 141 419 l 619 419 l 637 502 l 247 502 "},"–":{"x_min":68,"x_max":770.328125,"ha":694,"o":"m 89 431 l 68 327 l 748 327 l 770 431 l 89 431 "},"ë":{"x_min":121.015625,"x_max":802.640625,"ha":785,"o":"m 632 220 l 627 193 b 408 80 605 90 555 80 b 253 340 215 80 205 109 l 767 340 l 782 413 b 545 737 839 683 777 737 b 147 363 290 737 209 666 b 390 -8 88 86 111 -8 b 737 194 549 -8 696 1 l 743 220 l 632 220 m 272 429 b 526 648 314 597 332 648 b 675 429 690 648 711 636 l 272 429 m 498 906 l 378 906 l 356 804 l 476 804 l 498 906 m 770 906 l 650 906 l 628 804 l 748 804 l 770 906 "},"ƒ":{"x_min":44,"x_max":1049,"ha":958,"o":"m 684 583 l 871 583 l 907 673 l 718 673 l 775 826 b 937 959 812 920 828 959 b 1014 955 963 959 989 956 l 1049 1047 b 967 1050 1021 1048 994 1050 b 664 816 786 1050 727 991 l 609 673 l 468 673 l 434 583 l 575 583 l 317 -94 b 154 -233 280 -187 260 -233 b 78 -223 128 -233 102 -229 l 44 -312 b 121 -323 69 -319 94 -323 b 428 -84 310 -323 364 -263 l 684 583 "},"Î":{"x_min":98,"x_max":639.890625,"ha":317,"o":"m 430 1041 l 314 1041 l 98 0 l 213 0 l 430 1041 m 435 1334 l 164 1184 l 181 1126 l 415 1231 l 594 1126 l 639 1184 l 435 1334 "},"e":{"x_min":121.015625,"x_max":802.484375,"ha":785,"o":"m 632 220 l 627 193 b 408 80 605 90 555 80 b 253 340 215 80 205 109 l 767 340 l 782 413 b 545 737 839 683 777 737 b 147 363 290 737 209 666 b 390 -8 88 86 111 -8 b 737 194 549 -8 696 1 l 743 220 l 632 220 m 272 429 b 526 648 314 597 332 648 b 675 429 690 648 711 636 l 272 429 "},"Ã":{"x_min":8,"x_max":952.984375,"ha":951,"o":"m 770 220 l 804 0 l 924 0 l 759 1041 l 596 1041 l 8 0 l 129 0 l 254 220 l 770 220 m 758 317 l 306 317 l 661 944 l 758 317 m 902 1269 b 811 1207 880 1239 846 1207 b 724 1238 785 1207 754 1223 b 630 1267 692 1252 660 1267 b 477 1164 564 1267 517 1219 l 532 1128 b 612 1185 555 1159 573 1185 b 698 1156 639 1185 668 1170 b 790 1126 729 1141 759 1126 b 952 1230 854 1126 912 1177 l 902 1269 "},"J":{"x_min":79.296875,"x_max":887.703125,"ha":785,"o":"m 773 1041 l 604 234 b 360 95 576 95 465 95 b 209 261 197 95 182 131 l 234 379 l 118 379 l 87 226 b 359 -8 43 20 182 -8 b 723 251 541 -8 680 43 l 887 1041 l 773 1041 "},"»":{"x_min":87,"x_max":691,"ha":699,"o":"m 501 750 l 588 401 l 338 50 l 402 0 l 691 401 l 590 798 l 501 750 m 250 750 l 337 401 l 87 50 l 150 0 l 439 401 l 338 798 l 250 750 "},"∆":{"x_min":50,"x_max":1048,"ha":1107,"o":"m 50 0 l 1033 0 l 1048 75 l 824 1050 l 700 1050 l 64 75 l 50 0 m 176 83 l 576 698 b 732 948 621 772 707 901 l 738 948 b 797 669 747 884 783 744 l 933 83 l 176 83 "},"©":{"x_min":108.203125,"x_max":1171.359375,"ha":1083,"o":"m 751 1050 b 119 520 462 1050 179 812 b 531 -8 58 226 242 -8 b 1159 520 818 -8 1098 226 b 751 1050 1219 812 1038 1050 m 734 966 b 1075 523 974 966 1125 766 b 547 75 1023 275 788 75 b 204 523 305 75 152 275 b 734 966 254 766 491 966 m 803 423 b 615 288 773 336 697 288 b 458 526 480 288 431 398 b 710 758 486 658 573 758 b 845 629 793 758 848 712 l 927 629 b 724 829 934 755 849 829 b 375 525 547 829 412 700 b 600 218 340 351 426 218 b 885 423 720 218 844 297 l 803 423 "},"˘":{"x_min":314.546875,"x_max":774.46875,"ha":676,"o":"m 315 1023 b 499 812 303 905 383 812 b 774 1023 616 812 737 905 l 700 1023 b 515 891 671 947 592 891 b 387 1023 441 891 385 947 l 315 1023 "},"≥":{"x_min":273.578125,"x_max":1033.078125,"ha":1142,"o":"m 283 909 l 283 827 l 952 518 l 952 515 l 283 205 l 283 123 l 1031 480 l 1031 554 l 283 909 m 1033 -11 l 1033 58 l 273 58 l 273 -11 l 1033 -11 "},"ò":{"x_min":119.671875,"x_max":807.984375,"ha":792,"o":"m 146 363 b 386 -8 82 56 120 -8 b 780 363 651 -8 716 56 b 541 737 844 672 806 737 b 146 363 276 737 210 672 m 258 363 b 522 648 311 618 330 648 b 669 363 714 648 722 618 b 403 80 616 111 595 80 b 258 363 212 80 205 111 m 501 1031 l 431 956 l 623 818 l 670 875 l 501 1031 "},"^":{"x_min":143,"x_max":802,"ha":811,"o":"m 566 1042 l 143 362 l 251 362 l 586 906 l 693 362 l 802 362 l 661 1042 l 566 1042 "},"«":{"x_min":159,"x_max":747,"ha":699,"o":"m 425 798 l 159 401 l 281 0 l 367 50 l 261 401 l 495 750 l 425 798 m 677 798 l 410 401 l 533 0 l 619 50 l 512 401 l 747 750 l 677 798 "},"D":{"x_min":87.421875,"x_max":1084.4375,"ha":1019,"o":"m 87 0 l 611 0 b 1015 391 917 0 993 288 l 1067 640 b 800 1041 1147 1025 924 1041 l 303 1041 l 87 0 m 224 104 l 397 937 l 797 937 b 961 686 992 937 973 744 l 904 412 b 606 104 863 226 810 104 l 224 104 "},"∙":{"x_min":242,"x_max":392,"ha":479,"o":"m 392 465 l 270 465 l 242 323 l 363 323 l 392 465 "},"ł":{"x_min":91,"x_max":449,"ha":297,"o":"m 323 592 l 428 681 l 449 778 l 344 690 l 416 1041 l 308 1041 l 217 602 l 111 515 l 91 415 l 197 503 l 92 0 l 199 0 l 323 592 "},"ÿ":{"x_min":39,"x_max":752,"ha":607,"o":"m 752 729 l 640 729 l 343 80 l 341 80 l 256 729 l 146 729 l 252 0 l 290 0 b 93 -236 248 -83 205 -236 b 56 -231 79 -236 67 -234 l 39 -316 b 85 -323 52 -319 67 -323 b 383 -51 256 -323 316 -188 l 752 729 m 410 906 l 290 906 l 268 804 l 388 804 l 410 906 m 682 906 l 562 906 l 541 804 l 660 804 l 682 906 "},"Ł":{"x_min":60,"x_max":760,"ha":775,"o":"m 333 554 l 592 768 l 617 886 l 358 672 l 434 1041 l 318 1041 l 222 572 l 84 463 l 60 344 l 197 454 l 102 0 l 738 0 l 760 104 l 239 104 l 333 554 "},"í":{"x_min":93,"x_max":474.03125,"ha":299,"o":"m 352 729 l 245 729 l 93 0 l 200 0 l 352 729 m 437 1031 l 201 875 l 226 818 l 474 956 l 437 1031 "},"ˆ":{"x_min":283,"x_max":758.03125,"ha":693,"o":"m 553 1022 l 283 872 l 300 814 l 533 919 l 714 814 l 758 872 l 553 1022 "},"w":{"x_min":157.890625,"x_max":1174.640625,"ha":1047,"o":"m 1174 729 l 1063 729 l 764 76 l 762 76 l 743 729 l 589 729 l 296 76 l 294 76 l 268 729 l 157 729 l 198 0 l 356 0 l 646 652 l 649 652 l 665 0 l 822 0 l 1174 729 "},"$":{"x_min":87,"x_max":1051,"ha":958,"o":"m 546 578 b 324 765 386 576 285 574 b 624 944 363 944 443 944 l 546 578 m 615 480 b 845 287 796 474 886 486 b 535 97 807 105 736 97 l 615 480 m 712 944 b 924 782 916 944 954 935 l 917 750 l 1032 750 l 1038 782 b 731 1042 1090 1031 975 1042 l 751 1139 l 663 1139 l 643 1042 b 203 747 396 1042 261 1018 b 527 480 150 487 310 482 l 447 97 b 217 287 185 97 184 128 l 225 324 l 108 324 l 100 287 b 426 0 43 15 174 0 l 402 -117 l 490 -117 l 515 0 b 962 303 783 0 908 37 b 634 578 1019 578 851 574 l 712 944 "},"∫":{"x_min":230.03125,"x_max":755.421875,"ha":786,"o":"m 755 1219 b 666 1243 739 1229 700 1243 b 525 1187 617 1243 566 1227 b 441 880 462 1129 441 1037 b 464 136 441 652 464 370 b 402 -120 464 -18 438 -80 b 328 -152 385 -141 353 -152 b 250 -131 294 -152 264 -138 l 230 -205 b 336 -233 249 -218 295 -233 b 485 -159 394 -233 453 -208 b 556 133 521 -112 556 -26 b 533 869 556 366 533 643 b 590 1133 533 1005 548 1087 b 673 1166 612 1158 647 1166 b 736 1148 695 1166 722 1158 l 755 1219 "},"\\":{"x_min":147.578125,"x_max":413,"ha":386,"o":"m 289 -156 l 413 -156 l 274 1041 l 147 1041 l 289 -156 "},"Ì":{"x_min":98,"x_max":530.953125,"ha":317,"o":"m 430 1041 l 314 1041 l 98 0 l 213 0 l 430 1041 m 362 1344 l 291 1269 l 483 1130 l 530 1187 l 362 1344 "},"µ":{"x_min":27,"x_max":836,"ha":792,"o":"m 574 0 l 683 0 l 836 729 l 728 729 l 634 279 b 363 80 597 107 514 80 b 254 261 224 80 229 143 l 352 729 l 244 729 l 27 -314 l 134 -314 l 204 19 b 347 -7 236 0 284 -7 b 592 97 441 -7 535 8 l 594 97 l 574 0 "},"Ç":{"x_min":116.578125,"x_max":1032.015625,"ha":924,"o":"m 449 -55 l 326 -213 l 378 -245 l 514 -97 l 449 -55 m 519 -8 b 927 256 723 -8 878 18 l 948 354 l 832 354 l 815 270 b 537 95 785 122 722 95 l 400 95 b 268 440 207 95 219 202 l 328 726 b 698 945 367 916 458 945 l 763 945 b 900 745 912 945 930 891 l 895 716 l 1010 716 l 1017 750 b 801 1050 1059 955 1014 1050 l 706 1050 b 212 722 458 1050 273 1016 l 127 319 b 356 -8 84 111 169 -8 l 519 -8 "},"’":{"x_min":225,"x_max":422,"ha":279,"o":"m 324 900 l 318 873 b 237 806 307 822 287 808 l 225 744 l 256 744 b 388 873 347 744 371 800 l 422 1041 l 301 1041 l 272 900 l 324 900 "},"-":{"x_min":68,"x_max":445.03125,"ha":363,"o":"m 89 431 l 68 327 l 423 327 l 445 431 l 89 431 "},"Q":{"x_min":126.71875,"x_max":1095.15625,"ha":1024,"o":"m 1025 127 l 951 186 b 1016 390 982 243 998 304 l 1077 684 b 798 1050 1133 955 1059 1050 l 639 1050 b 211 684 381 1041 264 941 l 150 390 b 419 -8 91 109 129 -8 l 578 -8 b 895 100 703 -8 812 16 l 960 47 l 1025 127 m 611 452 l 541 372 l 816 161 b 623 95 771 111 692 95 l 429 95 b 261 369 256 95 212 138 l 331 708 b 605 945 367 883 433 945 l 800 945 b 970 725 983 945 997 852 l 889 337 b 864 255 884 313 877 277 l 611 452 "},"M":{"x_min":95,"x_max":1434,"ha":1340,"o":"m 1297 952 l 1300 952 l 1101 0 l 1217 0 l 1434 1041 l 1233 1041 l 686 150 l 511 1041 l 311 1041 l 95 0 l 210 0 l 409 952 l 412 952 l 599 0 l 714 0 l 1297 952 "},"C":{"x_min":116.578125,"x_max":1032.015625,"ha":924,"o":"m 519 -8 b 927 256 723 -8 878 18 l 948 354 l 832 354 l 815 270 b 537 95 785 122 722 95 l 400 95 b 268 440 207 95 219 202 l 328 726 b 698 945 367 916 458 945 l 763 945 b 900 745 912 945 930 891 l 895 716 l 1010 716 l 1017 750 b 801 1050 1059 955 1014 1050 l 706 1050 b 212 722 458 1050 273 1016 l 127 319 b 356 -8 84 111 169 -8 l 519 -8 "},"œ":{"x_min":119.65625,"x_max":1319.578125,"ha":1308,"o":"m 664 363 b 401 80 615 129 598 80 b 257 363 212 80 206 126 b 506 648 306 601 317 648 b 664 363 713 648 718 630 m 145 363 b 374 -8 91 105 102 -8 b 662 93 468 -8 603 -13 b 907 -8 686 -1 790 -8 b 1254 194 1067 -8 1213 1 l 1260 220 l 1149 220 l 1144 193 b 925 80 1122 90 1072 80 b 770 340 732 80 722 109 l 1284 340 l 1299 413 b 1062 737 1356 683 1294 737 b 777 634 956 737 831 731 l 774 634 b 521 737 775 744 607 737 b 145 363 241 737 197 615 m 789 429 b 1043 648 831 597 849 648 b 1192 429 1207 648 1228 636 l 789 429 "},"!":{"x_min":127,"x_max":465,"ha":375,"o":"m 278 141 l 156 141 l 127 0 l 248 0 l 278 141 m 465 1041 l 343 1041 l 197 287 l 297 287 l 465 1041 "},"ç":{"x_min":116.640625,"x_max":790.109375,"ha":758,"o":"m 368 -55 l 245 -213 l 297 -245 l 433 -97 l 368 -55 m 634 263 l 627 227 b 412 80 600 95 547 80 b 251 348 203 80 208 143 b 508 648 300 581 317 648 b 675 513 632 648 702 645 l 670 491 l 777 491 l 781 511 b 520 737 825 718 693 737 b 146 379 261 737 195 616 b 383 -8 90 108 86 -8 b 734 223 553 -8 691 18 l 742 263 l 634 263 "},"È":{"x_min":56,"x_max":928,"ha":778,"o":"m 366 937 l 906 937 l 928 1041 l 272 1041 l 56 0 l 711 0 l 733 104 l 193 104 l 272 486 l 789 486 l 809 583 l 292 583 l 366 937 m 587 1344 l 517 1269 l 708 1130 l 756 1187 l 587 1344 "},"ﬁ":{"x_min":120,"x_max":817,"ha":707,"o":"m 753 729 l 645 729 l 493 0 l 600 0 l 753 729 m 380 729 l 400 827 b 550 961 420 925 442 961 b 616 958 571 961 595 959 l 634 1047 b 569 1050 612 1048 591 1050 b 290 816 393 1050 326 994 l 272 729 l 163 729 l 144 640 l 253 640 l 120 0 l 227 0 l 360 640 l 550 640 l 569 729 l 380 729 m 817 1041 l 709 1041 l 684 920 l 792 920 l 817 1041 "},"{":{"x_min":143.234375,"x_max":614.515625,"ha":464,"o":"m 143 369 b 209 184 233 356 233 291 l 162 -43 b 239 -208 141 -143 203 -208 l 351 -208 l 373 -104 l 314 -104 b 282 -18 275 -104 272 -72 l 330 206 b 275 420 359 351 286 411 b 418 634 290 429 388 490 l 466 861 b 532 945 477 915 493 945 l 592 945 l 614 1050 l 501 1050 b 354 884 464 1050 375 983 l 308 656 b 163 473 285 548 258 484 l 143 369 "},"X":{"x_min":-8,"x_max":1089,"ha":907,"o":"m 1089 1041 l 952 1041 l 574 595 l 377 1041 l 238 1041 l 468 538 l -8 0 l 133 0 l 550 479 l 760 0 l 897 0 l 657 538 l 1089 1041 "},"ô":{"x_min":119.671875,"x_max":807.984375,"ha":792,"o":"m 146 363 b 386 -8 82 56 120 -8 b 780 363 651 -8 716 56 b 541 737 844 672 806 737 b 146 363 276 737 210 672 m 258 363 b 522 648 311 618 330 648 b 669 363 714 648 722 618 b 403 80 616 111 595 80 b 258 363 212 80 205 111 m 602 1022 l 331 872 l 349 813 l 582 919 l 763 813 l 806 872 l 602 1022 "},"¼":{"x_min":253,"x_max":1379,"ha":1438,"o":"m 1376 625 l 1251 625 l 838 226 l 816 126 l 1182 126 l 1157 0 l 1245 0 l 1271 126 l 1361 126 l 1379 209 l 1289 209 l 1376 625 m 1309 1041 l 1214 1041 l 308 0 l 400 0 l 1309 1041 m 1200 209 l 902 209 l 1271 565 l 1275 565 l 1200 209 m 596 1041 l 473 1041 l 253 854 l 287 797 l 494 975 l 378 416 l 466 416 l 596 1041 "},"#":{"x_min":174,"x_max":987,"ha":958,"o":"m 587 1041 l 480 758 l 318 758 l 295 647 l 438 647 l 353 420 l 197 420 l 174 309 l 310 309 l 195 0 l 297 0 l 416 309 l 583 309 l 469 0 l 573 0 l 688 309 l 848 309 l 871 420 l 733 420 l 818 647 l 963 647 l 987 758 l 861 758 l 967 1041 l 860 1041 l 754 758 l 585 758 l 692 1041 l 587 1041 m 544 647 l 711 647 l 627 420 l 459 420 l 544 647 "},"Ê":{"x_min":56,"x_max":928,"ha":778,"o":"m 366 937 l 906 937 l 928 1041 l 272 1041 l 56 0 l 711 0 l 733 104 l 193 104 l 272 486 l 789 486 l 809 583 l 292 583 l 366 937 m 661 1334 l 390 1184 l 406 1126 l 640 1231 l 820 1126 l 865 1184 l 661 1334 "},")":{"x_min":41.203125,"x_max":520.265625,"ha":433,"o":"m 282 945 l 318 945 b 385 723 431 945 401 806 l 258 118 b 99 -104 241 34 212 -104 l 62 -104 l 41 -208 l 77 -208 b 374 118 279 -208 337 -55 l 501 723 b 340 1050 536 897 542 1050 l 303 1050 l 282 945 "},"Å":{"x_min":8,"x_max":924,"ha":951,"o":"m 770 220 l 804 0 l 924 0 l 759 1041 l 595 1041 l 8 0 l 129 0 l 254 220 l 770 220 m 757 318 l 306 318 l 661 944 l 757 318 m 601 1213 b 692 1093 587 1147 628 1093 b 836 1213 757 1093 823 1147 b 742 1334 850 1279 808 1334 b 601 1213 679 1334 615 1279 m 653 1213 b 732 1281 661 1251 695 1281 b 785 1213 768 1281 793 1251 b 703 1145 777 1176 740 1145 b 653 1213 666 1145 644 1176 "},"ø":{"x_min":37.703125,"x_max":880.75,"ha":792,"o":"m 880 750 l 781 669 b 546 737 733 737 623 737 b 146 364 254 737 203 647 b 123 125 131 294 105 186 l 56 69 l 37 -21 l 141 62 b 391 -7 184 -3 315 -7 b 781 364 668 -7 721 97 b 804 605 803 465 818 537 l 860 655 l 880 750 m 698 514 b 669 364 689 464 678 414 b 409 80 606 100 595 80 b 236 142 364 80 239 80 l 698 514 m 231 215 b 258 364 237 262 248 314 b 527 649 305 628 341 649 b 692 592 567 649 678 649 l 231 215 "},"â":{"x_min":102.59375,"x_max":806.734375,"ha":792,"o":"m 374 81 b 225 226 250 81 195 87 b 431 353 250 344 303 353 b 619 217 567 353 647 354 b 374 81 591 83 481 81 m 684 0 l 787 497 b 527 737 835 719 707 739 b 199 539 368 739 239 726 l 197 524 l 308 524 l 314 549 b 520 649 333 649 436 649 b 681 503 642 649 708 636 l 652 368 l 646 368 b 437 442 646 435 508 442 b 111 212 261 442 152 414 b 337 -7 70 22 176 -7 b 590 78 427 -7 531 -5 l 591 75 l 576 0 l 684 0 m 602 1022 l 331 872 l 349 814 l 582 919 l 763 814 l 806 872 l 602 1022 "},"}":{"x_min":15.484375,"x_max":487.734375,"ha":464,"o":"m 487 472 b 421 656 397 484 397 550 l 467 884 b 391 1050 489 984 427 1050 l 278 1050 l 256 945 l 316 945 b 347 859 355 945 358 913 l 299 634 b 353 420 270 490 343 430 b 211 206 339 412 241 351 l 163 -19 b 97 -104 152 -73 136 -104 l 37 -104 l 15 -208 l 128 -208 b 274 -43 165 -208 253 -141 l 321 184 b 465 368 344 293 372 356 l 487 472 "},"‰":{"x_min":168.75,"x_max":1793.03125,"ha":1781,"o":"m 1129 183 b 961 68 1105 68 1073 68 b 851 183 849 68 826 68 l 882 336 b 1040 444 905 443 928 444 b 1160 336 1159 444 1184 443 l 1129 183 m 1242 333 b 1056 520 1275 500 1215 520 b 800 331 898 520 838 498 l 767 179 b 947 -8 738 12 788 -8 b 1211 180 1105 -8 1173 13 l 1242 333 m 1208 1041 l 1113 1041 l 207 -8 l 298 -8 l 1208 1041 m 1784 333 b 1597 520 1817 500 1757 520 b 1341 331 1439 520 1380 498 l 1309 179 b 1488 -8 1279 12 1329 -8 b 1753 180 1646 -8 1715 13 l 1784 333 m 1671 183 b 1502 68 1647 68 1615 68 b 1392 183 1390 68 1367 68 l 1423 336 b 1581 444 1446 443 1469 444 b 1702 336 1701 444 1726 443 l 1671 183 m 651 862 b 465 1050 684 1029 624 1050 b 209 861 307 1050 247 1027 l 176 708 b 356 520 147 541 197 520 b 620 709 514 520 582 543 l 651 862 m 538 712 b 370 597 514 597 482 597 b 260 712 258 597 235 597 l 291 865 b 449 973 314 972 337 973 b 569 865 568 973 593 972 l 538 712 "},"Ä":{"x_min":8,"x_max":924,"ha":951,"o":"m 770 220 l 804 0 l 924 0 l 759 1041 l 595 1041 l 8 0 l 129 0 l 254 220 l 770 220 m 757 318 l 306 318 l 661 944 l 757 318 m 644 1219 l 525 1219 l 503 1116 l 623 1116 l 644 1219 m 917 1219 l 797 1219 l 775 1116 l 895 1116 l 917 1219 "},"¸":{"x_min":42,"x_max":229.828125,"ha":375,"o":"m 164 -56 l 42 -214 l 93 -246 l 229 -97 l 164 -56 "},"a":{"x_min":102.59375,"x_max":797.71875,"ha":792,"o":"m 374 81 b 225 226 250 81 195 87 b 431 353 250 344 303 353 b 619 217 567 353 647 354 b 374 81 591 83 481 81 m 684 0 l 787 497 b 527 737 835 719 707 739 b 199 539 368 739 239 726 l 197 524 l 308 524 l 314 549 b 520 649 333 649 436 649 b 681 503 642 649 708 636 l 652 368 l 646 368 b 437 442 646 435 508 442 b 111 212 261 442 152 414 b 337 -7 70 22 176 -7 b 590 78 427 -7 531 -5 l 591 75 l 576 0 l 684 0 "},"—":{"x_min":68,"x_max":1450.890625,"ha":1389,"o":"m 89 431 l 68 327 l 1429 327 l 1450 431 l 89 431 "},"=":{"x_min":117,"x_max":842.453125,"ha":811,"o":"m 183 554 l 161 450 l 820 450 l 842 554 l 183 554 m 138 338 l 117 234 l 775 234 l 797 338 l 138 338 "},"N":{"x_min":93,"x_max":1190,"ha":1088,"o":"m 1190 1041 l 1074 1041 l 876 90 l 874 90 l 499 1041 l 309 1041 l 93 0 l 208 0 l 406 944 l 408 944 l 784 0 l 973 0 l 1190 1041 "},"˚":{"x_min":287.171875,"x_max":527.828125,"ha":449,"o":"m 289 901 b 380 780 276 834 317 780 b 525 901 446 780 511 834 b 431 1022 538 966 496 1022 b 289 901 367 1022 303 966 m 341 901 b 420 969 349 938 383 969 b 473 901 457 969 481 938 b 393 833 465 863 429 833 b 341 901 356 833 333 863 "},"ú":{"x_min":132.140625,"x_max":833.375,"ha":792,"o":"m 572 0 l 680 0 l 833 729 l 725 729 l 631 279 b 361 80 595 105 512 80 b 252 261 222 80 227 143 l 350 729 l 242 729 l 144 261 b 344 -8 105 69 155 -8 b 589 97 438 -8 532 8 l 592 97 l 572 0 m 678 1031 l 442 875 l 467 818 l 714 956 l 678 1031 "},"⁄":{"x_min":-7,"x_max":993,"ha":786,"o":"m 993 1041 l 897 1041 l -7 0 l 84 0 l 993 1041 "},"2":{"x_min":97.890625,"x_max":1003.0625,"ha":958,"o":"m 854 104 l 235 104 l 254 193 b 563 387 285 345 344 369 b 985 720 824 408 928 444 b 699 1050 1041 984 970 1050 b 251 738 345 1050 299 966 l 240 684 l 356 684 l 367 738 b 677 945 402 930 432 945 b 869 720 871 945 914 936 b 557 491 824 504 779 513 b 134 176 307 465 190 447 l 97 0 l 832 0 l 854 104 "},"ü":{"x_min":132.140625,"x_max":833.375,"ha":792,"o":"m 572 0 l 680 0 l 833 729 l 725 729 l 631 279 b 361 80 595 105 512 80 b 252 261 222 80 227 143 l 350 729 l 242 729 l 144 261 b 344 -8 105 69 155 -8 b 589 97 438 -8 532 8 l 592 97 l 572 0 m 501 906 l 381 906 l 359 804 l 479 804 l 501 906 m 773 906 l 653 906 l 631 804 l 751 804 l 773 906 "},"¯":{"x_min":276,"x_max":670.71875,"ha":603,"o":"m 295 900 l 276 811 l 651 811 l 670 900 l 295 900 "},"Z":{"x_min":35,"x_max":1034,"ha":885,"o":"m 1034 1041 l 270 1041 l 248 937 l 870 937 l 56 102 l 35 0 l 831 0 l 852 104 l 196 104 l 1012 931 l 1034 1041 "},"u":{"x_min":132.140625,"x_max":833.375,"ha":792,"o":"m 572 0 l 680 0 l 833 729 l 725 729 l 631 279 b 361 80 595 105 512 80 b 252 261 222 80 227 143 l 350 729 l 242 729 l 144 261 b 344 -8 105 69 155 -8 b 589 97 438 -8 532 8 l 592 97 l 572 0 "},"˜":{"x_min":280,"x_max":753.671875,"ha":679,"o":"m 703 957 b 612 895 681 927 647 895 b 525 926 586 895 554 911 b 431 955 493 940 461 955 b 280 852 365 955 318 907 l 333 816 b 413 873 357 847 373 873 b 499 844 440 873 469 858 b 593 814 530 829 561 814 b 753 918 657 814 712 865 l 703 957 "},"Ó":{"x_min":108.21875,"x_max":1021.609375,"ha":932,"o":"m 607 1050 b 201 700 351 1047 255 961 l 123 329 b 386 -8 73 83 141 -8 l 524 -8 b 925 329 769 -8 875 83 l 1003 700 b 744 1050 1057 961 997 1047 l 607 1050 m 722 945 b 887 700 894 945 929 902 l 810 329 b 545 95 767 122 695 97 l 408 95 b 239 329 258 97 197 122 l 317 700 b 585 945 359 902 413 945 l 722 945 m 812 1344 l 577 1187 l 601 1130 l 849 1269 l 812 1344 "},"k":{"x_min":93,"x_max":786,"ha":676,"o":"m 417 1041 l 309 1041 l 93 0 l 200 0 l 274 350 l 317 350 l 547 0 l 689 0 l 408 394 l 786 729 l 653 729 l 335 438 l 291 438 l 417 1041 "},"ˇ":{"x_min":301.96875,"x_max":777,"ha":693,"o":"m 506 814 l 777 962 l 760 1022 l 526 916 l 346 1022 l 301 962 l 506 814 "},"Ù":{"x_min":147.359375,"x_max":1123.15625,"ha":1024,"o":"m 1007 1041 l 852 291 b 522 95 811 97 728 95 b 275 291 273 95 239 122 l 430 1041 l 314 1041 l 159 291 b 501 -8 98 -2 277 -8 b 967 291 742 -8 909 12 l 1123 1041 l 1007 1041 m 654 1344 l 584 1269 l 776 1130 l 823 1187 l 654 1344 "},"Ÿ":{"x_min":208,"x_max":1085,"ha":878,"o":"m 1085 1041 l 947 1041 l 544 554 l 342 1041 l 208 1041 l 457 434 l 365 0 l 481 0 l 572 434 l 1085 1041 m 608 1219 l 488 1219 l 466 1116 l 586 1116 l 608 1219 m 880 1219 l 760 1219 l 739 1116 l 858 1116 l 880 1219 "},"€":{"x_min":101.0625,"x_max":1124.671875,"ha":958,"o":"m 1124 931 b 837 1050 1045 1055 904 1050 l 685 1050 b 294 722 559 1050 351 1000 l 282 669 l 182 669 l 137 579 l 264 579 l 245 493 l 145 493 l 101 402 l 227 402 l 209 319 b 438 -8 166 111 252 -8 l 610 -8 b 915 88 670 -8 812 -11 l 943 226 b 674 95 867 126 768 95 l 482 95 b 343 402 299 95 299 191 l 852 402 l 897 493 l 361 493 l 380 579 l 942 579 l 987 669 l 397 669 l 410 726 b 663 945 448 908 546 945 l 847 945 b 1056 806 951 945 1033 901 l 1124 931 "},"¢":{"x_min":211.9375,"x_max":883.03125,"ha":958,"o":"m 449 195 b 351 481 305 202 309 276 b 567 761 389 666 408 754 l 449 195 m 607 952 l 586 851 b 235 481 335 844 279 693 b 430 105 193 276 181 100 l 407 -9 l 495 -9 l 518 105 b 831 337 691 101 789 156 l 839 377 l 731 377 l 722 337 b 537 195 694 216 644 195 l 656 761 b 763 605 765 756 794 723 l 871 605 b 675 851 916 798 820 848 l 695 952 l 607 952 "},"Ω":{"x_min":86.265625,"x_max":1242.1875,"ha":1254,"o":"m 361 83 l 103 83 l 86 0 l 487 0 l 501 62 b 325 525 378 131 279 298 b 817 952 374 756 574 952 b 1122 530 1072 952 1163 726 b 755 62 1072 287 903 133 l 741 0 l 1141 0 l 1159 83 l 899 83 l 899 87 b 1231 544 1032 165 1186 325 b 834 1036 1284 798 1136 1036 b 222 540 550 1036 280 826 b 361 87 177 329 259 173 l 361 83 "},"ß":{"x_min":113.265625,"x_max":860.546875,"ha":819,"o":"m 113 0 l 220 0 l 390 815 b 594 961 417 945 476 961 b 739 829 709 961 765 952 b 544 713 726 763 705 713 l 477 713 l 460 625 l 549 625 b 692 347 737 625 727 516 b 507 80 643 108 601 80 b 430 195 431 80 415 123 l 435 220 l 333 220 l 322 170 b 490 -8 297 45 377 -8 b 803 347 717 -8 765 165 b 681 669 837 506 856 640 l 683 672 b 854 845 772 695 835 750 b 613 1050 892 1025 752 1050 b 283 815 423 1050 325 1016 l 113 0 "},"é":{"x_min":121.015625,"x_max":802.484375,"ha":785,"o":"m 632 220 l 627 193 b 408 80 605 90 555 80 b 253 340 215 80 205 109 l 767 340 l 782 413 b 545 737 839 683 777 737 b 147 363 290 737 209 666 b 390 -8 88 86 111 -8 b 737 194 549 -8 696 1 l 743 220 l 632 220 m 272 429 b 526 648 314 597 332 648 b 675 429 690 648 711 636 l 272 429 m 675 1031 l 439 875 l 464 818 l 711 956 l 675 1031 "},"s":{"x_min":91.96875,"x_max":781.796875,"ha":746,"o":"m 776 566 b 533 737 810 732 658 737 b 177 522 340 737 220 733 b 446 320 133 315 294 332 b 608 201 575 312 636 337 b 398 89 581 72 472 89 b 210 173 235 89 195 104 l 221 230 l 110 230 l 96 162 b 378 -8 62 0 223 -8 b 719 205 537 -8 677 0 b 415 425 770 443 596 414 b 294 551 304 430 266 420 b 513 640 313 641 378 640 b 665 566 626 640 680 640 l 658 539 l 770 539 l 776 566 "},"B":{"x_min":82.546875,"x_max":1010.859375,"ha":964,"o":"m 298 483 l 678 483 b 809 279 831 486 837 416 b 586 104 775 119 711 104 l 220 104 l 298 483 m 625 0 b 926 290 798 0 888 102 b 821 544 953 419 952 519 l 823 547 b 995 766 935 583 974 656 b 816 1041 1033 948 1008 1041 l 298 1041 l 82 0 l 625 0 m 392 937 l 741 937 b 884 781 862 937 912 922 b 656 587 850 619 795 587 l 320 587 l 392 937 "},"…":{"x_min":167,"x_max":1225,"ha":1389,"o":"m 318 141 l 196 141 l 167 0 l 288 0 l 318 141 m 772 141 l 650 141 l 621 0 l 742 0 l 772 141 m 1225 141 l 1103 141 l 1074 0 l 1195 0 l 1225 141 "},"?":{"x_min":225.75,"x_max":892.40625,"ha":811,"o":"m 468 297 l 476 334 b 636 463 493 416 514 423 b 879 772 813 522 843 604 b 624 1050 926 998 847 1050 b 238 772 404 1050 296 1026 l 225 712 l 334 712 l 346 772 b 602 945 380 937 432 945 b 770 772 770 945 802 927 b 598 556 737 612 719 602 b 360 334 431 498 389 469 l 352 297 l 468 297 m 439 141 l 318 141 l 288 0 l 409 0 l 439 141 "},"H":{"x_min":97,"x_max":1142,"ha":1042,"o":"m 1142 1041 l 1026 1041 l 931 583 l 333 583 l 429 1041 l 313 1041 l 97 0 l 212 0 l 312 479 l 909 479 l 810 0 l 925 0 l 1142 1041 "},"î":{"x_min":90,"x_max":565,"ha":299,"o":"m 352 729 l 245 729 l 92 0 l 200 0 l 352 729 m 360 1022 l 90 872 l 107 813 l 340 919 l 521 813 l 565 872 l 360 1022 "},"c":{"x_min":116.640625,"x_max":790.109375,"ha":758,"o":"m 634 263 l 627 227 b 412 80 600 95 547 80 b 251 348 203 80 208 143 b 508 648 300 581 317 648 b 675 513 632 648 702 645 l 670 491 l 777 491 l 781 511 b 520 737 825 718 693 737 b 146 379 261 737 195 616 b 383 -8 90 108 86 -8 b 734 223 553 -8 691 18 l 742 263 l 634 263 "},"¶":{"x_min":181.375,"x_max":1109.4375,"ha":958,"o":"m 833 -290 l 1109 1041 l 545 1041 b 197 722 311 1041 238 923 b 413 408 138 447 246 408 l 652 408 l 507 -290 l 609 -290 l 867 944 l 988 944 l 731 -290 l 833 -290 m 672 505 l 434 505 b 313 722 333 505 272 530 b 526 944 347 887 369 944 l 765 944 l 672 505 "},"−":{"x_min":139,"x_max":820,"ha":811,"o":"m 139 341 l 798 341 l 820 445 l 160 445 l 139 341 "},"≠":{"x_min":249.09375,"x_max":1012.90625,"ha":1118,"o":"m 820 769 l 766 797 l 676 605 l 249 605 l 249 536 l 646 536 l 533 294 l 249 294 l 249 225 l 502 225 l 423 55 l 479 26 l 571 225 l 1012 225 l 1012 294 l 601 294 l 714 536 l 1012 536 l 1012 605 l 744 605 l 820 769 "},"•":{"x_min":202.09375,"x_max":724.421875,"ha":722,"o":"m 718 520 b 517 781 748 665 658 781 b 208 520 374 781 235 665 b 408 261 176 375 268 261 b 718 520 549 261 688 377 "},"¥":{"x_min":188,"x_max":1104,"ha":958,"o":"m 835 711 l 1104 1041 l 970 1041 l 588 554 l 403 1041 l 268 1041 l 394 711 l 261 711 l 241 613 l 430 613 l 488 458 l 208 458 l 188 361 l 481 361 l 407 0 l 522 0 l 597 361 l 901 361 l 921 458 l 631 458 l 756 613 l 954 613 l 974 711 l 835 711 "},"(":{"x_min":79.125,"x_max":558.796875,"ha":433,"o":"m 558 1050 l 522 1050 b 225 723 320 1050 260 897 l 98 118 b 259 -208 61 -55 57 -208 l 296 -208 l 317 -104 l 281 -104 b 214 118 168 -104 196 34 l 341 723 b 500 945 357 806 387 945 l 537 945 l 558 1050 "},"U":{"x_min":147.359375,"x_max":1123.15625,"ha":1024,"o":"m 1007 1041 l 852 291 b 522 95 811 97 728 95 b 275 291 273 95 239 122 l 430 1041 l 314 1041 l 159 291 b 501 -8 98 -2 277 -8 b 967 291 742 -8 909 12 l 1123 1041 l 1007 1041 "},"◊":{"x_min":308,"x_max":1058,"ha":1168,"o":"m 1058 508 l 724 1094 l 641 1094 l 308 508 l 640 -76 l 723 -76 l 1058 508 m 960 505 l 714 72 b 686 5 705 52 691 22 l 680 5 b 652 72 676 22 665 44 l 403 511 l 646 941 b 679 1009 660 965 671 988 l 682 1009 b 713 941 689 993 702 963 l 960 505 "},"Ñ":{"x_min":93,"x_max":1190,"ha":1088,"o":"m 1190 1041 l 1074 1041 l 876 89 l 874 89 l 499 1041 l 309 1041 l 93 0 l 208 0 l 406 944 l 408 944 l 784 0 l 973 0 l 1190 1041 m 969 1269 b 878 1207 947 1239 913 1207 b 791 1238 852 1207 821 1223 b 697 1267 759 1252 727 1267 b 544 1164 631 1267 584 1219 l 599 1128 b 679 1185 622 1159 640 1185 b 765 1156 706 1185 735 1170 b 857 1126 796 1141 826 1126 b 1019 1230 921 1126 979 1177 l 969 1269 "},"F":{"x_min":88,"x_max":931,"ha":763,"o":"m 398 937 l 909 937 l 931 1041 l 304 1041 l 88 0 l 203 0 l 303 476 l 800 476 l 820 573 l 323 573 l 398 937 "},"­":{"x_min":68,"x_max":445.03125,"ha":363,"o":"m 89 431 l 68 327 l 423 327 l 445 431 l 89 431 "},":":{"x_min":150,"x_max":424,"ha":479,"o":"m 301 141 l 179 141 l 150 0 l 271 0 l 301 141 m 424 729 l 302 729 l 272 587 l 394 587 l 424 729 "},"Û":{"x_min":147.359375,"x_max":1123.15625,"ha":1024,"o":"m 1007 1041 l 852 291 b 522 95 811 97 728 95 b 275 291 273 95 239 122 l 430 1041 l 314 1041 l 159 291 b 501 -8 98 -2 277 -8 b 967 291 742 -8 909 12 l 1123 1041 l 1007 1041 m 781 1334 l 510 1184 l 526 1126 l 761 1231 l 940 1126 l 985 1184 l 781 1334 "},"*":{"x_min":369,"x_max":912,"ha":958,"o":"m 912 818 l 902 895 l 677 816 l 724 1041 l 649 1041 l 603 816 l 409 895 l 369 820 l 559 740 l 390 558 l 441 512 l 616 700 l 703 512 l 773 558 l 686 740 l 912 818 "},"†":{"x_min":314,"x_max":920,"ha":958,"o":"m 742 1041 l 627 1041 l 568 755 l 334 755 l 314 658 l 548 658 l 350 -290 l 466 -290 l 663 658 l 899 658 l 920 755 l 684 755 l 742 1041 "},"∕":{"x_min":-7,"x_max":993,"ha":786,"o":"m 993 1041 l 897 1041 l -7 0 l 84 0 l 993 1041 "},"°":{"x_min":238.6875,"x_max":656.109375,"ha":556,"o":"m 651 841 b 491 1050 674 955 602 1050 b 243 841 378 1050 265 955 b 404 633 218 726 291 633 b 651 841 515 633 627 726 m 583 841 b 419 702 567 763 492 702 b 311 841 344 702 295 763 b 474 980 326 916 401 980 b 583 841 549 980 598 916 "},"V":{"x_min":208,"x_max":1099.53125,"ha":893,"o":"m 975 1041 l 459 90 l 455 90 l 331 1041 l 208 1041 l 356 0 l 521 0 l 1099 1041 l 975 1041 "},"å":{"x_min":102.59375,"x_max":797.71875,"ha":792,"o":"m 374 81 b 225 226 250 81 195 87 b 431 353 250 344 303 353 b 619 217 567 353 647 354 b 374 81 591 83 481 81 m 684 0 l 787 497 b 527 737 835 719 707 739 b 199 539 368 739 239 726 l 197 524 l 308 524 l 314 549 b 520 649 333 649 436 649 b 681 503 642 649 708 636 l 652 368 l 646 368 b 437 442 646 435 508 442 b 111 212 261 442 152 414 b 337 -7 70 22 176 -7 b 590 78 427 -7 531 -5 l 591 75 l 576 0 l 684 0 m 458 901 b 549 781 444 835 485 781 b 693 901 614 781 680 835 b 599 1022 707 967 665 1022 b 458 901 535 1022 471 967 m 510 901 b 589 969 518 939 552 969 b 642 901 625 969 650 939 b 561 833 633 864 598 833 b 510 901 525 833 501 864 "}," ":{"x_min":0,"x_max":0,"ha":479},"0":{"x_min":93.9375,"x_max":1061.4375,"ha":958,"o":"m 665 945 b 927 673 918 945 985 944 l 863 368 b 488 95 808 97 741 95 b 227 368 238 95 171 97 l 291 673 b 665 945 348 944 415 945 m 469 -8 b 979 368 785 -8 903 34 l 1043 673 b 687 1050 1106 1006 1005 1050 b 175 673 371 1050 251 1006 l 111 368 b 469 -8 48 34 150 -8 "},"”":{"x_min":225,"x_max":636,"ha":499,"o":"m 324 900 l 318 873 b 237 806 308 822 287 808 l 225 744 l 256 744 b 388 873 347 744 371 800 l 422 1041 l 301 1041 l 272 900 l 324 900 m 538 900 l 532 873 b 450 806 521 822 501 808 l 438 744 l 469 744 b 601 873 561 744 585 800 l 636 1041 l 514 1041 l 486 900 l 538 900 "},"¾":{"x_min":175.703125,"x_max":1391.21875,"ha":1438,"o":"m 1388 624 l 1263 624 l 850 225 l 829 125 l 1195 125 l 1169 0 l 1257 0 l 1283 125 l 1373 125 l 1391 208 l 1301 208 l 1388 624 m 1212 208 l 914 208 l 1283 564 l 1287 564 l 1212 208 m 1372 1040 l 1276 1040 l 373 0 l 464 0 l 1372 1040 m 400 704 l 479 704 b 590 603 566 704 612 706 b 399 489 567 492 545 487 b 272 586 270 492 253 496 l 279 621 l 191 621 l 182 579 b 382 412 150 433 230 412 b 676 594 541 412 637 407 b 585 737 695 686 683 731 l 586 740 b 725 886 684 746 707 806 b 522 1049 759 1049 662 1047 b 253 878 369 1049 286 1037 l 248 851 l 336 851 l 342 878 b 496 972 362 961 382 972 b 633 874 638 972 652 962 b 495 781 612 778 581 782 l 416 781 l 400 704 "},"@":{"x_min":225.859375,"x_max":1351.46875,"ha":1375,"o":"m 1035 763 l 995 684 l 992 684 b 861 791 989 748 927 795 b 499 463 695 783 541 623 b 647 233 471 345 521 227 b 827 320 720 233 771 273 b 942 230 822 250 882 230 b 1343 634 1143 230 1305 448 b 912 1050 1399 901 1148 1050 b 238 488 622 1050 310 790 b 672 -8 170 186 390 -12 b 943 43 762 -6 854 12 l 925 123 b 688 81 860 104 775 83 b 337 477 464 81 298 243 b 894 959 383 726 652 958 b 1246 625 1088 961 1288 831 b 991 313 1219 497 1118 313 b 929 375 931 313 909 334 l 1132 763 l 1035 763 m 937 618 b 692 311 925 523 812 311 b 600 459 618 311 585 391 b 850 708 628 568 731 708 b 937 618 905 708 944 676 "},"ö":{"x_min":119.671875,"x_max":807.984375,"ha":792,"o":"m 146 363 b 386 -8 82 56 120 -8 b 780 363 651 -8 716 56 b 541 737 844 672 806 737 b 146 363 276 737 210 672 m 258 363 b 522 648 311 618 330 648 b 669 363 714 648 722 618 b 403 80 616 111 595 80 b 258 363 212 80 205 111 m 500 906 l 380 906 l 359 804 l 478 804 l 500 906 m 772 906 l 653 906 l 631 804 l 750 804 l 772 906 "},"i":{"x_min":93,"x_max":417,"ha":299,"o":"m 353 729 l 245 729 l 93 0 l 200 0 l 353 729 m 417 1041 l 309 1041 l 284 920 l 392 920 l 417 1041 "},"≤":{"x_min":272.21875,"x_max":1035.8125,"ha":1142,"o":"m 1031 123 l 1031 205 l 360 516 l 360 519 l 1031 827 l 1031 909 l 283 554 l 283 480 l 1031 123 m 1035 -11 l 1035 58 l 272 58 l 272 -11 l 1035 -11 "},"Õ":{"x_min":108.21875,"x_max":1021.609375,"ha":932,"o":"m 607 1049 b 201 699 351 1046 255 960 l 123 328 b 386 -8 73 82 141 -8 l 524 -8 b 925 328 769 -8 875 82 l 1003 699 b 744 1049 1057 960 997 1046 l 607 1049 m 722 945 b 887 699 894 945 929 902 l 810 328 b 545 95 767 121 695 96 l 408 95 b 239 328 258 96 197 121 l 317 699 b 585 945 359 902 413 945 l 722 945 m 893 1269 b 801 1207 871 1239 837 1207 b 714 1238 775 1207 744 1223 b 620 1267 683 1252 650 1267 b 468 1164 555 1267 507 1219 l 522 1128 b 603 1185 545 1159 563 1185 b 688 1156 630 1185 658 1170 b 781 1126 720 1141 750 1126 b 943 1230 845 1126 902 1177 l 893 1269 "},"þ":{"x_min":24.71875,"x_max":811.125,"ha":796,"o":"m 535 648 b 673 363 717 648 718 581 b 416 80 624 127 582 80 b 273 363 224 80 237 191 b 535 648 313 556 332 648 m 215 86 l 217 86 b 428 -8 241 1 347 -8 b 785 363 638 -8 724 75 b 584 737 830 581 844 737 b 333 637 494 737 393 720 l 330 640 l 413 1041 l 306 1041 l 24 -315 l 132 -315 l 215 86 "},"]":{"x_min":41.109375,"x_max":568,"ha":432,"o":"m 305 -208 l 568 1050 l 303 1050 l 282 945 l 430 945 l 211 -104 l 62 -104 l 41 -208 l 305 -208 "},"m":{"x_min":89.46875,"x_max":1273.5,"ha":1276,"o":"m 349 729 l 241 729 l 89 0 l 197 0 l 288 438 b 546 648 319 587 405 648 b 673 488 701 648 689 586 l 571 0 l 678 0 l 771 447 b 1031 648 804 604 879 648 b 1151 469 1170 648 1177 593 l 1053 0 l 1161 0 l 1261 480 b 1067 737 1298 661 1251 737 b 786 616 970 737 854 713 b 591 737 782 712 677 737 b 327 616 500 737 386 711 l 324 616 l 349 729 "},"8":{"x_min":133.25,"x_max":1013.3125,"ha":958,"o":"m 378 540 b 148 287 209 513 179 437 b 468 -8 85 -11 224 -8 b 910 287 765 -8 854 22 b 789 540 946 455 923 518 l 789 541 b 1000 780 943 568 973 647 b 689 1050 1054 1041 932 1050 b 263 780 437 1050 318 1038 b 378 543 232 626 244 568 l 378 540 m 380 780 b 667 945 411 929 433 945 b 884 780 902 945 914 923 b 592 588 850 616 824 588 b 380 780 356 588 347 622 m 264 287 b 570 484 302 470 343 484 b 795 287 806 484 832 461 b 490 95 762 127 716 91 b 264 287 238 100 228 119 "},"ž":{"x_min":34,"x_max":747,"ha":631,"o":"m 737 729 l 221 729 l 202 640 l 593 640 l 55 101 l 34 0 l 585 0 l 604 88 l 178 88 l 715 627 l 737 729 m 476 813 l 747 962 l 730 1022 l 496 916 l 317 1022 l 272 962 l 476 813 "},"R":{"x_min":94.125,"x_max":1050.859375,"ha":974,"o":"m 296 416 l 668 416 b 799 220 808 416 826 352 l 752 0 l 868 0 l 925 276 b 800 463 950 388 913 455 l 800 466 b 1037 741 967 487 1006 595 b 781 1041 1086 979 1001 1041 l 310 1041 l 94 0 l 209 0 l 296 416 m 318 520 l 404 937 l 761 937 b 922 754 943 937 951 887 b 675 520 887 581 854 526 l 318 520 "},"á":{"x_min":102.59375,"x_max":797.71875,"ha":792,"o":"m 374 81 b 225 226 250 81 195 87 b 431 353 250 344 303 353 b 619 217 567 353 647 354 b 374 81 591 83 481 81 m 684 0 l 787 497 b 527 737 835 719 707 739 b 199 539 368 739 239 726 l 197 524 l 308 524 l 314 549 b 520 649 333 649 436 649 b 681 503 642 649 708 636 l 652 368 l 646 368 b 437 442 646 435 508 442 b 111 212 261 442 152 414 b 337 -7 70 22 176 -7 b 590 78 427 -7 531 -5 l 591 75 l 576 0 l 684 0 m 677 1032 l 442 875 l 466 818 l 714 957 l 677 1032 "},"×":{"x_min":83,"x_max":853,"ha":811,"o":"m 194 605 l 401 337 l 83 69 l 134 0 l 453 269 l 659 0 l 741 69 l 534 337 l 853 605 l 799 675 l 481 405 l 274 675 l 194 605 "},"o":{"x_min":119.671875,"x_max":807.984375,"ha":792,"o":"m 146 363 b 386 -8 82 56 120 -8 b 780 363 651 -8 716 56 b 541 737 844 672 806 737 b 146 363 276 737 210 672 m 258 363 b 522 648 311 618 330 648 b 669 363 714 648 722 618 b 403 80 616 111 595 80 b 258 363 212 80 205 111 "},"5":{"x_min":142.453125,"x_max":1020.265625,"ha":958,"o":"m 420 938 l 998 938 l 1020 1042 l 327 1042 l 218 514 l 333 514 b 597 608 376 625 514 608 b 805 361 816 608 851 585 b 491 96 757 133 730 96 b 264 264 309 96 232 102 l 272 299 l 155 299 l 151 274 b 469 -7 112 21 195 -7 b 921 361 778 -7 853 35 b 651 713 963 561 970 713 b 359 627 564 713 426 710 l 357 627 l 420 938 "},"õ":{"x_min":119.671875,"x_max":809.546875,"ha":792,"o":"m 146 364 b 386 -8 82 57 120 -8 b 780 364 651 -8 716 57 b 541 737 844 672 806 737 b 146 364 276 737 210 672 m 258 364 b 522 648 311 618 330 648 b 669 364 714 648 722 618 b 403 80 616 111 595 80 b 258 364 212 80 205 111 m 759 957 b 668 895 737 927 703 895 b 580 926 642 895 610 911 b 486 955 549 940 516 955 b 335 852 421 955 373 907 l 388 816 b 469 873 413 847 429 873 b 555 844 496 873 525 858 b 648 814 586 829 617 814 b 809 918 712 814 768 865 l 759 957 "},"7":{"x_min":199,"x_max":1047,"ha":958,"o":"m 1047 1041 l 302 1041 l 283 944 l 932 944 l 199 0 l 335 0 l 1017 893 l 1047 1041 "},"K":{"x_min":98,"x_max":1098,"ha":942,"o":"m 429 1041 l 314 1041 l 98 0 l 213 0 l 314 481 l 415 481 l 781 0 l 937 0 l 526 537 l 1098 1041 l 946 1041 l 436 586 l 336 586 l 429 1041 "},",":{"x_min":117,"x_max":316,"ha":479,"o":"m 216 0 l 211 -26 b 130 -93 200 -77 179 -91 l 117 -155 l 148 -155 b 280 -26 239 -155 265 -100 l 316 141 l 194 141 l 164 0 l 216 0 "},"d":{"x_min":117.515625,"x_max":903.109375,"ha":797,"o":"m 396 80 b 253 363 242 80 200 111 b 515 648 306 619 350 648 b 655 363 690 648 696 563 b 396 80 607 138 564 80 m 579 0 l 686 0 l 903 1041 l 795 1041 l 712 638 l 709 638 b 500 737 696 727 579 737 b 142 363 244 737 187 583 b 345 -8 95 141 90 -8 b 595 94 441 -8 535 6 l 598 91 l 579 0 "},"¨":{"x_min":270,"x_max":684,"ha":608,"o":"m 411 906 l 291 906 l 270 804 l 389 804 l 411 906 m 684 906 l 564 906 l 542 804 l 662 804 l 684 906 "},"Ô":{"x_min":108.21875,"x_max":1021.609375,"ha":932,"o":"m 607 1050 b 201 700 351 1047 255 961 l 123 329 b 386 -8 73 83 141 -8 l 524 -8 b 925 329 769 -8 875 83 l 1003 700 b 744 1050 1057 961 997 1047 l 607 1050 m 722 945 b 887 700 894 945 929 902 l 810 329 b 545 95 767 122 695 97 l 408 95 b 239 329 258 97 197 122 l 317 700 b 585 945 359 902 413 945 l 722 945 m 736 1334 l 465 1184 l 481 1126 l 716 1231 l 895 1126 l 940 1184 l 736 1334 "},"E":{"x_min":56,"x_max":928,"ha":778,"o":"m 366 937 l 906 937 l 928 1041 l 272 1041 l 56 0 l 711 0 l 733 104 l 193 104 l 272 486 l 789 486 l 809 583 l 292 583 l 366 937 "},"Y":{"x_min":208,"x_max":1085,"ha":878,"o":"m 1085 1041 l 947 1041 l 544 554 l 342 1041 l 208 1041 l 457 434 l 365 0 l 481 0 l 572 434 l 1085 1041 "},"\"":{"x_min":251.8125,"x_max":630.203125,"ha":493,"o":"m 285 1041 l 254 887 l 251 700 l 306 700 l 382 887 l 413 1041 l 285 1041 m 502 1041 l 470 887 l 468 700 l 522 700 l 598 887 l 630 1041 l 502 1041 "},"‹":{"x_min":159,"x_max":495.0625,"ha":442,"o":"m 425 798 l 159 401 l 281 0 l 367 50 l 261 401 l 495 750 l 425 798 "},"˙":{"x_min":270,"x_max":412,"ha":331,"o":"m 412 906 l 291 906 l 270 804 l 390 804 l 412 906 "},"ê":{"x_min":121.015625,"x_max":803.046875,"ha":785,"o":"m 632 220 l 627 193 b 408 80 605 90 555 80 b 253 340 215 80 205 109 l 767 340 l 782 413 b 545 737 839 683 777 737 b 147 363 290 737 209 666 b 390 -8 88 86 111 -8 b 737 194 549 -8 696 1 l 743 220 l 632 220 m 272 429 b 526 648 314 597 332 648 b 675 429 690 648 711 636 l 272 429 m 598 1022 l 328 872 l 345 813 l 578 919 l 759 813 l 803 872 l 598 1022 "},"Ï":{"x_min":98,"x_max":606,"ha":317,"o":"m 430 1041 l 314 1041 l 98 0 l 213 0 l 430 1041 m 333 1219 l 213 1219 l 191 1116 l 311 1116 l 333 1219 m 606 1219 l 486 1219 l 464 1116 l 584 1116 l 606 1219 "},"„":{"x_min":37,"x_max":449,"ha":499,"o":"m 136 0 l 130 -26 b 50 -93 119 -77 99 -91 l 37 -155 l 68 -155 b 200 -26 159 -155 185 -100 l 235 141 l 114 141 l 84 0 l 136 0 m 349 0 l 344 -26 b 264 -93 333 -77 313 -91 l 250 -155 l 281 -155 b 413 -26 372 -155 398 -100 l 449 141 l 327 141 l 298 0 l 349 0 "},"Â":{"x_min":8,"x_max":950,"ha":951,"o":"m 770 220 l 804 0 l 924 0 l 759 1041 l 596 1041 l 8 0 l 129 0 l 254 220 l 770 220 m 758 318 l 306 318 l 661 944 l 758 318 m 745 1334 l 474 1184 l 491 1126 l 725 1231 l 905 1126 l 950 1184 l 745 1334 "},"Í":{"x_min":98,"x_max":547.046875,"ha":317,"o":"m 429 1041 l 314 1041 l 98 0 l 213 0 l 429 1041 m 510 1344 l 274 1187 l 299 1130 l 547 1269 l 510 1344 "},"´":{"x_min":284,"x_max":556.21875,"ha":469,"o":"m 519 1032 l 284 874 l 308 818 l 556 956 l 519 1032 "},"ì":{"x_min":93,"x_max":457.9375,"ha":299,"o":"m 353 729 l 245 729 l 93 0 l 200 0 l 353 729 m 289 1031 l 218 956 l 410 818 l 457 875 l 289 1031 "},"±":{"x_min":71,"x_max":835,"ha":811,"o":"m 499 729 l 455 518 l 175 518 l 154 413 l 433 413 l 389 202 l 491 202 l 535 413 l 813 413 l 835 518 l 557 518 l 602 729 l 499 729 m 71 13 l 730 13 l 751 118 l 92 118 l 71 13 "},"Ú":{"x_min":147.359375,"x_max":1123.15625,"ha":1024,"o":"m 1007 1041 l 852 291 b 522 95 811 97 728 95 b 275 291 273 95 239 122 l 430 1041 l 314 1041 l 159 291 b 501 -8 98 -2 277 -8 b 967 291 742 -8 909 12 l 1123 1041 l 1007 1041 m 857 1344 l 622 1187 l 646 1130 l 894 1269 l 857 1344 "},"|":{"x_min":383.828125,"x_max":470.9375,"ha":650,"o":"m 383 1211 l 383 -402 l 470 -402 l 470 1211 l 383 1211 "},"§":{"x_min":101.140625,"x_max":979.484375,"ha":958,"o":"m 403 287 b 303 422 323 311 281 318 b 509 547 333 568 389 590 l 686 490 b 797 372 748 471 815 458 b 589 230 767 226 716 190 l 403 287 m 590 117 b 714 -36 696 88 740 84 b 433 -205 677 -218 583 -205 b 217 -12 180 -205 189 -164 l 116 -12 b 413 -303 59 -286 160 -303 b 817 -30 632 -303 763 -297 b 759 175 836 58 844 141 l 759 178 b 901 382 850 203 884 303 b 732 591 935 543 853 553 l 544 648 b 428 814 419 687 402 690 b 675 952 458 961 524 952 b 860 773 878 952 894 933 l 962 773 b 695 1050 1010 1014 968 1050 b 319 789 468 1050 371 1039 b 357 608 304 718 296 643 l 357 605 b 201 416 252 587 220 510 b 323 194 169 265 195 231 l 590 117 "},"Ý":{"x_min":208,"x_max":1085,"ha":878,"o":"m 1085 1041 l 947 1041 l 544 554 l 342 1041 l 208 1041 l 457 434 l 365 0 l 481 0 l 572 434 l 1085 1041 m 809 1344 l 574 1187 l 598 1130 l 846 1269 l 809 1344 "},"b":{"x_min":92.75,"x_max":812.328125,"ha":797,"o":"m 676 363 b 419 80 634 163 609 80 b 279 363 261 80 230 127 b 537 648 322 572 350 648 b 676 363 709 648 725 602 m 92 0 l 200 0 l 217 86 l 222 88 b 431 -8 243 9 335 -8 b 788 363 679 -8 737 126 b 586 737 835 591 833 737 b 335 634 503 737 388 727 l 332 634 l 416 1041 l 309 1041 l 92 0 "},"q":{"x_min":124.078125,"x_max":844.25,"ha":799,"o":"m 403 80 b 258 363 203 80 215 159 b 505 648 310 616 360 648 b 657 363 709 648 699 568 b 403 80 618 175 585 80 m 844 729 l 736 729 l 717 641 l 714 638 b 525 737 691 716 610 737 b 147 363 254 737 196 602 b 370 -8 81 50 154 -8 b 599 83 438 -8 546 0 l 601 83 l 518 -315 l 626 -315 l 844 729 "},"Ω":{"x_min":86.265625,"x_max":1242.1875,"ha":1254,"o":"m 361 83 l 103 83 l 86 0 l 487 0 l 501 62 b 325 525 378 131 279 298 b 817 952 374 756 574 952 b 1122 530 1072 952 1163 726 b 755 62 1072 287 903 133 l 741 0 l 1141 0 l 1159 83 l 899 83 l 899 87 b 1231 544 1032 165 1186 325 b 834 1036 1284 798 1136 1036 b 222 540 550 1036 280 826 b 361 87 177 329 259 173 l 361 83 "},"Ö":{"x_min":108.234375,"x_max":1021.625,"ha":932,"o":"m 607 1050 b 201 700 351 1047 255 961 l 123 329 b 386 -8 73 83 141 -8 l 524 -8 b 925 329 769 -8 875 83 l 1003 700 b 744 1050 1057 961 997 1047 l 607 1050 m 722 945 b 887 700 894 945 929 902 l 810 329 b 545 95 767 122 695 97 l 408 95 b 239 329 258 97 197 122 l 317 700 b 585 945 359 902 413 945 l 722 945 m 635 1219 l 515 1219 l 494 1116 l 613 1116 l 635 1219 m 908 1219 l 788 1219 l 766 1116 l 886 1116 l 908 1219 "},"ﬂ":{"x_min":120,"x_max":822,"ha":713,"o":"m 379 729 l 400 827 b 549 961 420 925 442 961 b 616 958 571 961 594 959 l 634 1047 b 568 1050 612 1048 590 1050 b 290 816 393 1050 326 994 l 272 729 l 163 729 l 144 640 l 253 640 l 120 0 l 227 0 l 360 640 l 549 640 l 568 729 l 379 729 m 822 1041 l 714 1041 l 498 0 l 605 0 l 822 1041 "},"z":{"x_min":34,"x_max":738,"ha":631,"o":"m 738 729 l 221 729 l 202 640 l 593 640 l 55 101 l 34 0 l 585 0 l 604 88 l 178 88 l 716 627 l 738 729 "},"™":{"x_min":286,"x_max":1499,"ha":1389,"o":"m 1499 1041 l 1349 1041 l 1093 629 l 1014 1041 l 863 1041 l 742 456 l 837 456 l 942 958 l 944 958 l 1030 456 l 1083 456 l 1384 958 l 1387 958 l 1282 456 l 1377 456 l 1499 1041 m 766 1041 l 302 1041 l 286 958 l 467 958 l 362 456 l 464 456 l 569 958 l 750 958 l 766 1041 "},"ã":{"x_min":102.59375,"x_max":809.453125,"ha":792,"o":"m 374 81 b 225 226 250 81 195 87 b 431 353 250 344 303 353 b 619 217 567 353 647 354 b 374 81 591 83 481 81 m 684 0 l 787 497 b 527 737 835 719 707 739 b 199 539 368 739 239 726 l 197 523 l 308 523 l 314 548 b 520 648 333 648 436 648 b 681 503 642 648 708 636 l 652 368 l 646 368 b 437 441 646 435 508 441 b 111 212 261 441 152 414 b 337 -7 70 22 176 -7 b 590 78 427 -7 531 -5 l 591 75 l 576 0 l 684 0 m 759 957 b 667 895 737 927 703 895 b 580 926 642 895 610 911 b 486 955 549 940 516 955 b 335 852 421 955 374 907 l 389 816 b 469 873 413 847 429 873 b 555 844 496 873 525 858 b 648 814 586 829 617 814 b 809 918 712 814 768 865 l 759 957 "},"æ":{"x_min":102.765625,"x_max":1308.578125,"ha":1294,"o":"m 778 429 b 1032 648 820 597 838 648 b 1181 429 1196 648 1217 636 l 778 429 m 431 352 b 619 216 567 352 648 354 b 374 80 592 83 481 80 b 225 226 250 80 195 87 b 431 352 250 344 303 352 m 653 368 l 646 368 b 438 441 646 434 509 441 b 111 212 261 441 152 413 b 337 -8 70 22 176 -8 b 648 112 460 -8 592 4 l 650 112 b 896 -8 663 -2 788 -8 b 1243 194 1056 -8 1203 1 l 1249 220 l 1138 220 l 1133 193 b 914 80 1111 90 1061 80 b 759 340 721 80 711 109 l 1273 340 l 1288 413 b 1051 737 1345 683 1283 737 b 771 645 964 737 832 731 b 528 737 766 743 592 737 b 199 538 368 738 239 726 l 197 523 l 308 523 l 314 548 b 521 648 333 648 436 648 b 682 502 642 648 709 636 l 653 368 "},"®":{"x_min":108.359375,"x_max":1171.46875,"ha":1083,"o":"m 751 1050 b 120 520 463 1050 180 812 b 531 -8 58 226 242 -8 b 1160 520 818 -8 1098 226 b 751 1050 1219 812 1038 1050 m 734 966 b 1075 523 974 966 1125 766 b 547 75 1023 275 788 75 b 204 523 305 75 152 275 b 734 966 254 766 491 966 m 720 491 b 936 659 825 494 912 543 b 762 816 964 787 867 816 l 509 816 l 385 223 l 467 223 l 521 483 l 634 483 l 746 223 l 837 223 l 720 491 m 576 745 l 731 745 b 855 661 792 745 871 738 b 689 554 842 602 806 554 l 536 554 l 576 745 "},"É":{"x_min":56,"x_max":928,"ha":778,"o":"m 366 937 l 906 937 l 928 1041 l 272 1041 l 56 0 l 711 0 l 733 104 l 193 104 l 272 486 l 789 486 l 809 583 l 292 583 l 366 937 m 736 1344 l 500 1187 l 525 1130 l 772 1269 l 736 1344 "},"~":{"x_min":131.109375,"x_max":828,"ha":811,"o":"m 226 298 b 317 427 234 365 280 427 b 367 405 333 427 352 420 l 509 300 b 623 261 548 272 587 259 b 828 484 730 261 817 390 l 732 484 b 648 366 727 430 700 366 b 588 384 629 365 607 372 l 415 506 b 328 526 403 515 370 529 b 131 298 212 515 155 398 l 226 298 "},"³":{"x_min":165.703125,"x_max":723.15625,"ha":575,"o":"m 390 704 l 469 704 b 581 603 557 704 603 706 b 389 489 558 492 536 487 b 262 586 260 492 243 496 l 269 621 l 181 621 l 172 579 b 373 412 140 433 220 412 b 667 594 532 412 629 412 b 576 737 686 686 674 731 l 577 740 b 716 886 675 746 698 806 b 513 1049 750 1049 653 1047 b 243 878 359 1049 276 1037 l 238 851 l 326 851 l 332 878 b 487 972 352 961 373 972 b 624 874 629 972 643 962 b 485 781 603 778 572 782 l 407 781 l 390 704 "},"¡":{"x_min":54,"x_max":393,"ha":375,"o":"m 393 727 l 271 727 l 241 586 l 363 586 l 393 727 m 54 -313 l 175 -313 l 322 440 l 222 440 l 54 -313 "},"[":{"x_min":31,"x_max":557.890625,"ha":432,"o":"m 293 1050 l 31 -208 l 295 -208 l 316 -104 l 168 -104 l 387 945 l 536 945 l 557 1050 l 293 1050 "},"L":{"x_min":102,"x_max":759,"ha":775,"o":"m 433 1041 l 318 1041 l 102 0 l 737 0 l 759 104 l 239 104 l 433 1041 "}," ":{"x_min":0,"x_max":0,"ha":479},"∑":{"x_min":246.203125,"x_max":1092.875,"ha":1153,"o":"m 1092 -140 l 1092 -44 l 393 -44 l 393 -40 l 824 447 l 421 922 l 421 926 l 1069 926 l 1069 1018 l 267 1018 l 267 947 l 699 436 l 246 -73 l 246 -140 l 1092 -140 "},"%":{"x_min":168.75,"x_max":1251.390625,"ha":1228,"o":"m 1129 183 b 961 68 1105 68 1073 68 b 851 183 849 68 826 68 l 882 336 b 1040 444 905 443 928 444 b 1160 336 1159 444 1184 443 l 1129 183 m 1242 333 b 1056 520 1275 500 1215 520 b 800 331 898 520 838 498 l 767 179 b 947 -8 738 12 788 -8 b 1211 180 1105 -8 1173 13 l 1242 333 m 1211 1041 l 1116 1041 l 209 -8 l 300 -8 l 1211 1041 m 651 862 b 465 1050 684 1029 624 1050 b 209 861 307 1050 247 1027 l 176 708 b 356 520 147 541 197 520 b 620 709 514 520 582 543 l 651 862 m 538 712 b 370 597 514 597 482 597 b 260 712 258 597 235 597 l 291 865 b 449 973 314 972 337 973 b 569 865 568 973 593 972 l 538 712 "},"P":{"x_min":80.328125,"x_max":1011.015625,"ha":918,"o":"m 80 0 l 196 0 l 280 405 l 679 405 b 995 726 926 405 975 633 b 816 1041 1033 905 1014 1041 l 296 1041 l 80 0 m 744 937 b 876 711 887 937 917 911 b 601 509 834 508 755 509 l 302 509 l 390 937 l 744 937 "},"∏":{"x_min":251.8125,"x_max":1328.453125,"ha":1396,"o":"m 1328 925 l 1328 1018 l 251 1018 l 251 925 l 442 925 l 442 -140 l 545 -140 l 545 925 l 1034 925 l 1034 -140 l 1137 -140 l 1137 925 l 1328 925 "},"À":{"x_min":8,"x_max":924,"ha":951,"o":"m 770 220 l 804 0 l 924 0 l 759 1041 l 595 1041 l 8 0 l 129 0 l 254 220 l 770 220 m 757 318 l 306 318 l 661 944 l 757 318 m 673 1344 l 602 1269 l 794 1130 l 842 1187 l 673 1344 "},"_":{"x_min":-37,"x_max":659,"ha":694,"o":"m 659 -104 l -22 -104 l -37 -173 l 644 -173 l 659 -104 "},"ñ":{"x_min":94.46875,"x_max":817.21875,"ha":806,"o":"m 354 729 l 246 729 l 94 0 l 202 0 l 290 425 b 550 648 325 593 374 648 b 689 493 671 648 717 626 l 587 0 l 694 0 l 795 484 b 579 737 840 687 762 737 b 338 640 497 737 389 727 l 335 640 l 354 729 m 766 957 b 675 895 745 927 711 895 b 588 926 649 895 618 911 b 494 955 557 940 524 955 b 343 852 429 955 381 907 l 396 816 b 476 873 421 847 437 873 b 562 844 504 873 532 858 b 656 814 594 829 625 814 b 817 918 720 814 776 865 l 766 957 "},"+":{"x_min":139,"x_max":820,"ha":811,"o":"m 499 729 l 440 445 l 160 445 l 139 341 l 418 341 l 359 56 l 461 56 l 520 341 l 798 341 l 820 445 l 542 445 l 602 729 l 499 729 "},"‚":{"x_min":54,"x_max":253,"ha":317,"o":"m 153 0 l 148 -26 b 67 -93 137 -77 116 -91 l 54 -155 l 85 -155 b 217 -26 176 -155 202 -100 l 253 141 l 131 141 l 101 0 l 153 0 "},"½":{"x_min":242.296875,"x_max":1444.359375,"ha":1438,"o":"m 1283 1041 l 1188 1041 l 283 0 l 374 0 l 1283 1041 m 462 1041 l 242 854 l 276 797 l 483 975 l 367 416 l 455 416 l 585 1041 l 462 1041 m 971 83 l 978 115 b 1161 218 995 197 1031 208 b 1434 431 1329 230 1399 263 b 1244 630 1467 590 1421 630 b 958 443 1014 630 986 580 l 951 411 l 1039 411 l 1046 443 b 1227 547 1063 537 1082 547 b 1346 431 1340 547 1369 540 b 1161 301 1320 309 1290 315 b 887 105 999 286 922 272 l 865 0 l 1343 0 l 1361 83 l 971 83 "},"Æ":{"x_min":-11,"x_max":1587,"ha":1450,"o":"m 1030 937 l 1565 937 l 1587 1041 l 768 1041 l -11 0 l 125 0 l 288 215 l 764 215 l 719 0 l 1370 0 l 1392 104 l 857 104 l 936 486 l 1446 486 l 1467 583 l 956 583 l 1030 937 m 786 319 l 363 319 l 816 937 l 914 937 l 786 319 "},"Ë":{"x_min":56,"x_max":928,"ha":778,"o":"m 366 937 l 906 937 l 928 1041 l 272 1041 l 56 0 l 711 0 l 733 104 l 193 104 l 272 486 l 789 486 l 809 583 l 292 583 l 366 937 m 559 1219 l 439 1219 l 417 1116 l 537 1116 l 559 1219 m 831 1219 l 711 1219 l 689 1116 l 809 1116 l 831 1219 "},"'":{"x_min":249.078125,"x_max":411.0625,"ha":265,"o":"m 283 1041 l 251 887 l 249 700 l 303 700 l 379 887 l 411 1041 l 283 1041 "},"Š":{"x_min":88.28125,"x_max":967.9375,"ha":874,"o":"m 523 480 b 759 300 706 465 800 498 b 439 95 717 95 657 95 b 229 325 223 95 179 95 l 114 325 b 417 -8 29 23 157 -8 b 873 295 675 -8 812 1 b 568 584 931 577 808 570 b 325 772 379 590 284 573 b 619 945 355 916 393 945 b 835 756 835 945 867 938 l 950 756 b 645 1050 1021 1040 865 1050 b 203 747 393 1050 262 1025 b 523 480 146 472 325 497 m 658 1126 l 930 1275 l 913 1334 l 680 1229 l 500 1334 l 455 1275 l 658 1126 "},"ª":{"x_min":240.640625,"x_max":689.890625,"ha":611,"o":"m 548 604 l 620 604 l 683 903 b 513 1050 714 1040 625 1050 b 299 915 416 1050 326 1046 l 381 915 b 508 983 389 978 423 983 b 589 842 618 983 611 944 b 452 876 565 876 497 876 b 245 732 344 876 271 853 b 395 596 220 615 295 596 b 554 640 446 596 509 596 l 557 637 l 548 604 m 420 662 b 332 740 350 662 317 665 b 465 810 346 805 380 810 b 566 735 537 810 581 805 b 420 662 552 664 487 662 "},"Œ":{"x_min":113.90625,"x_max":1675.15625,"ha":1540,"o":"m 677 945 b 940 655 941 945 998 934 l 882 376 b 500 95 825 105 753 95 b 250 376 265 95 191 101 l 308 655 b 677 945 368 933 427 945 m 1114 937 l 1653 937 l 1675 1041 l 1020 1041 l 997 930 l 994 930 b 699 1050 994 1041 797 1050 b 192 655 368 1050 258 963 l 135 376 b 478 -8 62 27 173 -8 b 824 108 602 -8 741 -6 l 827 108 l 804 0 l 1458 0 l 1480 104 l 941 104 l 1020 486 l 1536 486 l 1556 583 l 1040 583 l 1114 937 "},"˛":{"x_min":68.125,"x_max":283.015625,"ha":426,"o":"m 205 0 b 70 -147 142 -30 85 -77 b 190 -268 54 -229 118 -268 b 262 -255 213 -268 239 -263 l 276 -187 b 221 -198 258 -195 239 -198 b 146 -125 175 -198 136 -177 b 283 0 157 -72 238 -23 l 205 0 "},"ð":{"x_min":119.65625,"x_max":884.390625,"ha":792,"o":"m 258 364 b 522 649 311 618 330 649 b 669 364 714 649 722 618 b 403 81 616 111 595 81 b 258 364 212 81 205 111 m 465 1017 b 576 914 504 987 541 949 l 405 861 l 454 810 l 616 858 b 692 694 653 806 681 747 b 541 737 657 725 632 737 b 146 364 275 737 210 672 b 386 -7 82 57 120 -7 b 797 442 659 -7 712 36 b 725 890 834 624 805 772 l 884 937 l 832 994 l 681 947 b 569 1050 650 986 612 1019 l 465 1017 "},"T":{"x_min":200,"x_max":999,"ha":804,"o":"m 646 937 l 977 937 l 999 1041 l 221 1041 l 200 937 l 530 937 l 336 0 l 451 0 l 646 937 "},"š":{"x_min":91.96875,"x_max":802.828125,"ha":746,"o":"m 776 566 b 533 737 810 732 658 737 b 177 522 340 737 220 733 b 446 320 133 315 294 332 b 608 201 575 312 636 337 b 398 89 581 72 472 89 b 210 173 235 89 195 104 l 221 230 l 110 230 l 96 162 b 378 -8 62 0 223 -8 b 719 205 537 -8 677 0 b 415 425 770 443 596 414 b 294 551 304 430 266 420 b 513 640 313 641 378 640 b 665 566 626 640 680 640 l 658 539 l 770 539 l 776 566 m 532 814 l 802 962 l 786 1022 l 552 916 l 372 1022 l 328 962 l 532 814 "},"℮":{"x_min":266.328125,"x_max":1419.1875,"ha":1499,"o":"m 1419 505 l 1419 520 b 842 1050 1419 812 1160 1050 b 266 520 523 1050 266 812 b 842 -6 266 229 523 -6 b 1298 197 1027 -6 1194 73 l 1215 197 b 843 22 1123 91 991 22 b 490 179 704 22 580 83 b 478 211 482 188 478 198 l 478 500 b 485 505 478 504 481 505 l 1419 505 m 1206 543 b 1201 534 1206 540 1205 534 l 485 534 b 478 543 481 534 478 540 l 478 826 b 492 862 478 841 482 854 b 843 1018 582 956 707 1018 b 1193 868 979 1018 1102 958 b 1206 833 1202 858 1206 845 l 1206 543 "},"Þ":{"x_min":80.515625,"x_max":969.015625,"ha":918,"o":"m 80 0 l 196 0 l 238 202 l 637 202 b 953 523 884 202 933 430 b 774 838 991 702 972 838 l 370 838 l 412 1041 l 296 1041 l 80 0 m 702 734 b 834 508 845 734 875 708 b 559 306 792 305 713 306 l 260 306 l 348 734 l 702 734 "},"j":{"x_min":-65,"x_max":417,"ha":290,"o":"m 353 729 l 245 729 l 82 -51 b -26 -200 68 -120 60 -200 b -47 -198 -33 -200 -40 -198 l -65 -283 b -13 -290 -48 -287 -30 -290 b 182 -87 120 -290 154 -200 l 353 729 m 417 1041 l 309 1041 l 284 920 l 392 920 l 417 1041 "},"1":{"x_min":313,"x_max":826,"ha":958,"o":"m 826 1041 l 658 1041 l 313 728 l 370 657 l 692 951 l 493 0 l 609 0 l 826 1041 "},"›":{"x_min":87,"x_max":440,"ha":442,"o":"m 250 750 l 337 401 l 87 50 l 151 0 l 440 401 l 339 798 l 250 750 "},"ı":{"x_min":93,"x_max":353,"ha":299,"o":"m 353 729 l 245 729 l 93 0 l 200 0 l 353 729 "},"ℓ":{"x_min":105.78125,"x_max":822.359375,"ha":813,"o":"m 752 241 b 485 81 696 168 594 81 b 342 306 391 81 311 150 l 348 341 b 814 893 598 527 775 702 b 659 1134 840 1019 801 1134 b 339 777 544 1134 397 1052 l 255 373 b 105 272 209 338 157 308 l 126 209 b 237 283 164 233 203 261 l 235 266 b 447 -1 216 129 269 -1 b 797 195 574 -1 695 63 l 752 241 m 443 795 b 643 1058 484 994 580 1058 b 733 887 735 1058 752 983 b 369 441 701 736 550 590 l 443 795 "},"ä":{"x_min":102.8125,"x_max":797.9375,"ha":792,"o":"m 374 81 b 225 226 250 81 195 87 b 431 353 250 344 303 353 b 619 217 567 353 648 354 b 374 81 592 83 481 81 m 684 0 l 787 497 b 528 737 835 719 707 739 b 199 539 368 739 239 726 l 197 524 l 308 524 l 314 549 b 521 649 333 649 437 649 b 681 503 642 649 708 636 l 653 368 l 646 368 b 438 442 646 435 509 442 b 111 212 261 442 152 414 b 337 -7 70 22 176 -7 b 590 78 427 -7 532 -5 l 592 75 l 577 0 l 684 0 m 501 907 l 381 907 l 359 804 l 479 804 l 501 907 m 772 907 l 653 907 l 631 804 l 750 804 l 772 907 "},"<":{"x_min":128,"x_max":867,"ha":811,"o":"m 867 672 l 148 384 l 128 287 l 726 0 l 749 111 l 258 336 l 843 561 l 867 672 "},"£":{"x_min":96.71875,"x_max":1043.078125,"ha":958,"o":"m 706 504 l 416 504 l 465 737 b 745 945 510 929 526 945 b 917 752 927 945 952 919 l 913 730 l 1022 730 l 1026 752 b 743 1050 1078 997 1016 1050 b 349 737 521 1050 407 1011 l 300 504 l 175 504 l 155 406 l 280 406 l 262 320 b 115 88 245 233 224 106 l 96 0 l 888 0 l 910 101 l 249 88 l 246 91 b 378 320 349 150 359 220 l 396 406 l 686 406 l 706 504 "},"¹":{"x_min":241,"x_max":585,"ha":575,"o":"m 585 1049 l 462 1049 l 241 862 l 275 805 l 481 983 l 364 419 l 453 419 l 585 1049 "},"t":{"x_min":117.3125,"x_max":623.4375,"ha":508,"o":"m 623 729 l 347 729 l 383 905 l 276 905 l 239 729 l 144 729 l 125 640 l 220 640 l 130 211 b 291 -8 95 40 123 -8 b 540 204 438 -8 510 59 l 552 258 l 450 258 l 438 204 b 311 80 424 134 412 80 b 231 177 232 80 216 98 l 328 640 l 604 640 l 623 729 "},"¬":{"x_min":162,"x_max":843,"ha":811,"o":"m 661 179 l 764 179 l 843 554 l 183 554 l 162 450 l 719 450 l 661 179 "},"ù":{"x_min":132.140625,"x_max":833.375,"ha":792,"o":"m 572 0 l 680 0 l 833 729 l 725 729 l 631 279 b 361 80 595 105 512 80 b 252 261 222 80 227 143 l 350 729 l 242 729 l 144 261 b 344 -8 105 69 155 -8 b 589 97 438 -8 532 8 l 592 97 l 572 0 m 475 1031 l 404 956 l 596 818 l 644 875 l 475 1031 "},"W":{"x_min":219,"x_max":1742,"ha":1560,"o":"m 1742 1041 l 1622 1041 l 1140 90 l 1137 90 l 1062 1041 l 892 1041 l 420 90 l 417 90 l 337 1041 l 219 1041 l 315 0 l 488 0 l 953 937 l 956 937 l 1028 0 l 1204 0 l 1742 1041 "},"ï":{"x_min":93,"x_max":533,"ha":299,"o":"m 353 729 l 245 729 l 93 0 l 200 0 l 353 729 m 260 906 l 140 906 l 118 804 l 238 804 l 260 906 m 533 906 l 413 906 l 391 804 l 511 804 l 533 906 "},">":{"x_min":68,"x_max":807,"ha":811,"o":"m 807 384 l 208 672 l 185 561 l 669 336 l 91 111 l 68 0 l 786 287 l 807 384 "},"v":{"x_min":147,"x_max":774,"ha":629,"o":"m 774 729 l 657 729 l 326 83 l 323 83 l 255 729 l 147 729 l 231 0 l 382 0 l 774 729 "},"û":{"x_min":132.140625,"x_max":833.375,"ha":792,"o":"m 572 0 l 680 0 l 833 729 l 725 729 l 631 279 b 361 80 595 105 512 80 b 252 261 222 80 227 143 l 350 729 l 242 729 l 144 261 b 344 -8 105 69 155 -8 b 589 97 438 -8 532 8 l 592 97 l 572 0 m 603 1022 l 332 872 l 350 813 l 582 919 l 763 813 l 807 872 l 603 1022 "},"Ò":{"x_min":108.21875,"x_max":1021.609375,"ha":932,"o":"m 607 1050 b 201 700 351 1047 255 961 l 123 329 b 386 -8 73 83 141 -8 l 524 -8 b 925 329 769 -8 875 83 l 1003 700 b 744 1050 1057 961 997 1047 l 607 1050 m 722 945 b 887 700 894 945 929 902 l 810 329 b 545 95 767 122 695 97 l 408 95 b 239 329 258 97 197 122 l 317 700 b 585 945 359 902 413 945 l 722 945 m 637 1344 l 566 1269 l 758 1130 l 805 1187 l 637 1344 "},"&":{"x_min":136.609375,"x_max":1088,"ha":1094,"o":"m 808 201 b 494 96 759 87 605 96 b 267 314 253 96 225 112 b 478 535 301 480 321 501 l 808 201 m 1007 1 l 1088 82 l 932 232 b 976 378 953 280 965 330 b 990 460 981 406 985 432 l 883 460 b 870 388 879 437 877 412 b 853 319 865 364 858 342 l 526 659 b 485 805 482 705 470 731 b 712 946 514 942 602 946 b 853 788 865 946 879 920 l 839 723 l 956 723 l 969 788 b 734 1051 1014 1007 920 1051 b 369 805 534 1051 413 1010 b 420 599 345 688 364 656 b 151 316 281 562 204 569 b 473 -7 85 -8 247 -7 b 883 128 636 -7 795 -7 l 1007 1 "},"˝":{"x_min":282,"x_max":766.75,"ha":679,"o":"m 504 1042 l 282 864 l 313 811 l 551 972 l 504 1042 m 719 1042 l 497 864 l 528 811 l 766 972 l 719 1042 "},"Ð":{"x_min":57.3125,"x_max":1092.4375,"ha":1019,"o":"m 216 584 l 76 584 l 57 487 l 197 487 l 95 0 l 619 0 b 1023 391 925 0 1001 288 l 1075 640 b 808 1041 1155 1025 932 1041 l 311 1041 l 216 584 m 405 937 l 805 937 b 969 686 1000 937 981 744 l 912 412 b 614 104 871 226 818 104 l 232 104 l 313 487 l 594 487 l 614 584 l 332 584 l 405 937 "},"I":{"x_min":98,"x_max":430,"ha":317,"o":"m 430 1041 l 314 1041 l 98 0 l 213 0 l 430 1041 "},"ˉ":{"x_min":276,"x_max":670.71875,"ha":603,"o":"m 295 900 l 276 811 l 651 811 l 670 900 l 295 900 "},"G":{"x_min":117.296875,"x_max":1077.1875,"ha":967,"o":"m 570 520 l 548 416 l 874 416 l 847 287 b 561 95 811 120 763 95 l 452 95 b 246 338 261 95 204 140 l 316 673 b 626 945 363 901 405 945 l 769 945 b 950 797 935 945 975 916 l 938 737 l 1053 737 l 1070 818 b 847 1050 1105 986 1000 1050 l 578 1050 b 203 687 404 1050 261 969 l 136 365 b 450 -8 69 43 178 -8 l 562 -8 b 964 294 793 -8 913 50 l 1011 520 l 570 520 "},"`":{"x_min":301,"x_max":540.5625,"ha":469,"o":"m 371 1032 l 301 956 l 492 818 l 540 874 l 371 1032 "},"·":{"x_min":242,"x_max":392,"ha":479,"o":"m 392 465 l 270 465 l 242 323 l 363 323 l 392 465 "},"r":{"x_min":78.71875,"x_max":700.640625,"ha":614,"o":"m 231 729 l 78 0 l 186 0 l 281 454 b 495 648 304 583 361 648 b 590 527 585 648 609 618 l 579 479 l 681 479 l 692 531 b 537 737 721 668 674 737 b 312 636 457 737 367 716 l 311 638 l 335 729 l 231 729 "},"¿":{"x_min":54.59375,"x_max":721.25,"ha":811,"o":"m 478 429 l 470 391 b 310 262 453 309 432 302 b 67 -45 133 204 103 122 b 322 -323 20 -272 99 -323 b 709 -45 542 -323 650 -300 l 721 13 l 612 13 l 600 -45 b 344 -219 566 -211 514 -219 b 176 -45 176 -219 144 -201 b 348 169 209 113 227 123 b 586 391 515 227 557 256 l 594 429 l 478 429 m 658 729 l 537 729 l 507 587 l 628 587 l 658 729 "},"ý":{"x_min":39,"x_max":752,"ha":607,"o":"m 752 729 l 640 729 l 343 80 l 341 80 l 256 729 l 146 729 l 252 0 l 290 0 b 93 -236 248 -83 205 -236 b 56 -231 79 -236 67 -234 l 39 -316 b 85 -323 52 -319 67 -323 b 383 -51 256 -323 316 -188 l 752 729 m 611 1031 l 376 875 l 400 818 l 648 956 l 611 1031 "},"x":{"x_min":-5,"x_max":749,"ha":631,"o":"m 749 729 l 623 729 l 406 462 l 295 729 l 174 729 l 332 380 l -5 0 l 124 0 l 370 294 l 494 0 l 623 0 l 448 380 l 749 729 "},"è":{"x_min":121.015625,"x_max":802.484375,"ha":785,"o":"m 632 220 l 627 193 b 408 80 605 90 555 80 b 253 340 215 80 205 109 l 767 340 l 782 413 b 545 737 839 683 777 737 b 147 363 290 737 209 666 b 390 -8 88 86 111 -8 b 737 194 549 -8 696 1 l 743 220 l 632 220 m 272 429 b 526 648 314 597 332 648 b 675 429 690 648 711 636 l 272 429 m 499 1031 l 428 956 l 620 818 l 668 875 l 499 1031 "},"º":{"x_min":252.609375,"x_max":688.234375,"ha":611,"o":"m 525 1050 b 269 826 337 1050 303 988 b 430 595 231 637 246 595 b 672 826 607 595 638 656 b 525 1050 710 1004 686 1050 m 510 983 b 590 826 619 983 618 955 b 443 662 563 690 551 662 b 351 826 324 662 318 663 b 510 983 381 966 393 983 "},"Ø":{"x_min":21.578125,"x_max":1180.171875,"ha":1004,"o":"m 973 776 l 879 327 b 621 96 847 176 791 96 l 436 96 b 239 175 379 96 255 97 l 973 776 m 229 265 l 312 669 b 613 945 356 879 399 945 l 798 945 b 962 870 877 945 947 936 l 229 265 m 1180 1043 l 1058 950 b 820 1050 1018 1025 929 1050 l 635 1050 b 197 669 414 1050 263 984 l 126 327 b 119 175 114 266 115 191 l 44 114 l 21 2 l 141 96 b 414 -7 191 0 306 -7 l 600 -7 b 995 328 813 -7 941 72 l 1065 669 b 1080 870 1080 737 1099 809 l 1154 923 l 1180 1043 "},"∞":{"x_min":220.5,"x_max":1287.609375,"ha":1397,"o":"m 1287 422 b 1060 666 1287 565 1197 666 b 762 470 928 666 846 566 b 466 666 677 569 585 666 b 220 416 326 666 220 559 b 454 170 220 277 329 170 b 755 365 583 170 671 268 b 1048 170 868 240 947 170 b 1287 420 1171 170 1287 268 l 1287 422 m 465 238 b 294 413 360 238 294 318 b 454 601 294 512 353 601 b 718 413 571 601 646 501 b 466 238 651 345 570 238 l 465 238 m 1052 601 b 1215 416 1144 601 1215 533 b 1054 238 1215 330 1156 238 b 797 420 969 238 905 302 b 1050 601 854 477 941 601 l 1052 601 "},"μ":{"x_min":27,"x_max":836,"ha":792,"o":"m 574 0 l 683 0 l 836 729 l 728 729 l 634 279 b 363 80 597 107 514 80 b 254 261 224 80 229 143 l 352 729 l 244 729 l 27 -314 l 134 -314 l 204 19 b 347 -7 236 0 284 -7 b 592 97 441 -7 535 8 l 594 97 l 574 0 "},"÷":{"x_min":139,"x_max":820,"ha":811,"o":"m 820 445 l 160 445 l 139 341 l 798 341 l 820 445 m 480 58 l 510 202 l 369 202 l 339 58 l 480 58 m 589 584 l 621 729 l 479 729 l 448 584 l 589 584 "},"h":{"x_min":94.46875,"x_max":807.90625,"ha":806,"o":"m 418 1041 l 310 1041 l 94 0 l 202 0 l 290 425 b 550 648 325 593 374 648 b 689 493 671 648 717 626 l 587 0 l 694 0 l 795 484 b 579 737 840 687 762 737 b 338 640 497 737 389 727 l 335 640 l 418 1041 "},".":{"x_min":150,"x_max":301,"ha":479,"o":"m 301 141 l 179 141 l 150 0 l 271 0 l 301 141 "},";":{"x_min":117,"x_max":438,"ha":479,"o":"m 216 0 l 210 -26 b 130 -93 199 -77 179 -91 l 117 -155 l 148 -155 b 280 -26 239 -155 265 -100 l 315 141 l 194 141 l 164 0 l 216 0 m 438 729 l 316 729 l 287 587 l 408 587 l 438 729 "},"f":{"x_min":120,"x_max":635,"ha":419,"o":"m 380 729 l 400 827 b 550 961 421 925 442 961 b 617 958 572 961 595 959 l 635 1047 b 569 1050 613 1048 591 1050 b 290 816 393 1050 327 994 l 272 729 l 163 729 l 144 640 l 253 640 l 120 0 l 227 0 l 361 640 l 550 640 l 569 729 l 380 729 "},"“":{"x_min":226,"x_max":638,"ha":499,"o":"m 538 894 l 544 920 b 624 987 555 972 575 986 l 638 1050 l 606 1050 b 474 920 515 1050 489 994 l 439 752 l 560 752 l 590 894 l 538 894 m 325 894 l 330 920 b 410 987 341 972 361 986 l 424 1050 l 393 1050 b 261 920 302 1050 276 994 l 226 752 l 347 752 l 376 894 l 325 894 "},"A":{"x_min":8,"x_max":924,"ha":951,"o":"m 770 220 l 804 0 l 924 0 l 759 1041 l 595 1041 l 8 0 l 129 0 l 254 220 l 770 220 m 757 318 l 306 318 l 661 944 l 757 318 "},"6":{"x_min":144.46875,"x_max":1003.296875,"ha":958,"o":"m 607 540 b 799 318 825 540 840 515 b 490 95 759 130 743 95 b 281 359 247 95 234 133 b 607 540 317 527 382 540 m 166 359 b 468 -8 99 36 182 -8 b 915 318 758 -8 857 37 b 604 644 977 611 888 644 b 323 548 449 644 363 613 l 321 548 l 367 772 b 672 945 408 948 486 945 b 877 806 825 945 907 945 l 871 777 l 987 777 l 994 811 b 694 1050 1045 1051 862 1050 b 251 772 456 1050 306 1019 l 166 359 "},"‘":{"x_min":226,"x_max":425,"ha":279,"o":"m 325 894 l 330 920 b 411 987 341 972 362 986 l 425 1050 l 393 1050 b 261 920 302 1050 276 994 l 226 752 l 347 752 l 377 894 l 325 894 "},"π":{"x_min":102.078125,"x_max":1069.828125,"ha":961,"o":"m 1041 670 l 1069 756 l 404 756 b 163 716 279 756 209 740 l 166 648 b 366 670 205 662 255 670 b 102 0 314 469 196 150 l 208 0 b 472 670 294 126 420 475 l 793 670 l 698 213 b 680 0 671 81 669 22 l 784 0 b 808 229 781 40 781 95 l 901 670 l 1041 670 "},"O":{"x_min":108.21875,"x_max":1021.609375,"ha":932,"o":"m 607 1050 b 201 700 351 1047 255 961 l 123 329 b 386 -8 73 83 141 -8 l 524 -8 b 925 329 769 -8 875 83 l 1003 700 b 744 1050 1057 961 997 1047 l 607 1050 m 722 945 b 887 700 894 945 929 902 l 810 329 b 545 95 767 122 695 97 l 408 95 b 239 329 258 97 197 122 l 317 700 b 585 945 359 902 413 945 l 722 945 "},"n":{"x_min":94.46875,"x_max":807.90625,"ha":806,"o":"m 354 729 l 246 729 l 94 0 l 202 0 l 290 425 b 550 648 325 593 374 648 b 689 493 671 648 717 626 l 587 0 l 694 0 l 795 484 b 579 737 840 687 762 737 b 338 640 497 737 389 727 l 335 640 l 354 729 "},"3":{"x_min":122.875,"x_max":992.28125,"ha":958,"o":"m 475 481 l 596 481 b 786 306 741 481 823 483 b 461 95 743 99 707 91 b 250 267 242 99 217 105 l 265 337 l 150 337 l 135 267 b 440 -8 81 24 206 -8 b 899 294 684 -8 834 -19 b 760 533 930 447 913 520 l 760 536 b 980 779 913 547 952 645 b 671 1049 1037 1049 887 1048 b 252 766 434 1049 308 1033 l 244 722 l 359 722 l 367 766 b 634 945 407 929 438 945 b 860 758 875 945 895 930 b 618 586 823 581 763 588 l 497 586 l 475 481 "},"9":{"x_min":124.40625,"x_max":1021.703125,"ha":958,"o":"m 581 508 b 363 719 357 508 323 521 b 672 945 410 938 438 945 b 887 719 876 945 933 941 b 581 508 846 521 816 508 m 133 226 b 474 -8 85 -3 234 -8 b 920 320 800 -8 865 58 l 1003 719 b 694 1049 1063 1003 982 1049 b 247 719 398 1049 307 1005 b 559 403 190 441 276 403 b 838 496 600 403 773 395 l 841 494 l 804 320 b 495 95 759 103 710 95 b 249 226 269 95 223 106 l 257 264 l 141 264 l 133 226 "},"l":{"x_min":93,"x_max":417,"ha":297,"o":"m 417 1041 l 309 1041 l 93 0 l 200 0 l 417 1041 "},"¤":{"x_min":240.984375,"x_max":898.40625,"ha":958,"o":"m 326 690 l 387 607 b 313 472 347 577 325 526 b 322 327 300 420 300 366 l 240 256 l 299 174 l 387 245 b 506 210 435 220 464 209 b 652 256 552 212 601 227 l 709 180 l 803 256 l 741 335 b 814 483 766 366 801 413 b 803 601 819 547 812 577 l 898 678 l 835 762 l 743 687 b 611 721 695 714 656 722 b 477 687 574 719 533 711 l 416 769 l 326 690 m 524 301 b 401 468 457 301 372 352 b 592 630 420 582 524 630 b 722 472 660 630 746 582 b 524 301 698 352 592 301 "},"∂":{"x_min":130.671875,"x_max":956.859375,"ha":915,"o":"m 373 994 b 612 1065 424 1026 506 1065 b 837 609 782 1065 895 891 b 819 534 833 588 826 555 l 818 534 b 562 702 803 580 728 702 b 138 337 377 702 185 559 b 386 -2 106 186 166 -2 b 937 593 672 -2 873 288 b 639 1150 1012 954 856 1150 b 348 1063 505 1150 408 1104 l 373 994 m 411 79 b 243 341 277 79 213 197 b 562 622 276 498 422 622 b 784 437 701 622 773 505 b 412 79 721 254 578 79 l 411 79 "},"4":{"x_min":90,"x_max":950,"ha":958,"o":"m 947 1041 l 770 1041 l 119 377 l 90 237 l 664 237 l 615 0 l 730 0 l 779 237 l 928 237 l 950 341 l 801 341 l 947 1041 m 686 341 l 207 341 l 813 965 l 816 965 l 686 341 "},"p":{"x_min":24.71875,"x_max":811.125,"ha":796,"o":"m 535 648 b 673 363 717 648 718 581 b 416 80 624 127 582 80 b 273 363 224 80 237 191 b 535 648 313 556 332 648 m 350 729 l 242 729 l 24 -315 l 132 -315 l 215 86 l 217 86 b 428 -8 241 1 347 -8 b 785 363 638 -8 724 75 b 584 737 830 581 844 737 b 333 637 494 737 393 720 l 330 640 l 350 729 "},"‡":{"x_min":191,"x_max":911,"ha":958,"o":"m 743 1041 l 627 1041 l 559 713 l 325 713 l 305 616 l 539 616 l 444 159 l 210 159 l 191 62 l 425 62 l 351 -290 l 467 -290 l 540 62 l 776 62 l 795 159 l 559 159 l 655 616 l 890 616 l 911 713 l 675 713 l 743 1041 "},"à":{"x_min":102.59375,"x_max":797.71875,"ha":792,"o":"m 374 81 b 225 226 250 81 195 87 b 431 353 250 344 303 353 b 619 217 567 353 647 354 b 374 81 591 83 481 81 m 684 0 l 787 497 b 527 737 835 719 707 739 b 199 539 368 739 239 726 l 197 524 l 308 524 l 314 549 b 520 649 333 649 436 649 b 681 503 642 649 708 636 l 652 368 l 646 368 b 437 442 646 435 508 442 b 111 212 261 442 152 414 b 337 -7 70 22 176 -7 b 590 78 427 -7 531 -5 l 591 75 l 576 0 l 684 0 m 501 1032 l 431 957 l 623 818 l 670 875 l 501 1032 "},"Ü":{"x_min":147.359375,"x_max":1123.15625,"ha":1024,"o":"m 1007 1041 l 852 291 b 522 95 811 97 728 95 b 275 291 273 95 239 122 l 430 1041 l 314 1041 l 159 291 b 501 -8 98 -2 277 -8 b 967 291 742 -8 909 12 l 1123 1041 l 1007 1041 m 680 1219 l 561 1219 l 539 1116 l 659 1116 l 680 1219 m 953 1219 l 833 1219 l 811 1116 l 931 1116 l 953 1219 "},"ó":{"x_min":119.671875,"x_max":807.984375,"ha":792,"o":"m 146 363 b 386 -8 82 56 120 -8 b 780 363 651 -8 716 56 b 541 737 844 672 806 737 b 146 363 276 737 210 672 m 258 363 b 522 648 311 618 330 648 b 669 363 714 648 722 618 b 403 80 616 111 595 80 b 258 363 212 80 205 111 m 677 1031 l 442 875 l 466 818 l 714 956 l 677 1031 "},"√":{"x_min":272,"x_max":1153,"ha":1167,"o":"m 1153 1206 l 1069 1206 l 756 -18 b 734 -113 749 -49 740 -85 l 733 -112 b 706 -20 725 -82 715 -49 l 483 561 l 272 476 l 296 413 l 419 460 l 685 -220 l 783 -220 l 1153 1206 "}}}
